G04 #@! TF.GenerationSoftware,KiCad,Pcbnew,(5.1.0)-1*
G04 #@! TF.CreationDate,2021-03-09T16:36:58+01:00*
G04 #@! TF.ProjectId,Atari TTP and OS,41746172-6920-4545-9450-20616e64204f,rev?*
G04 #@! TF.SameCoordinates,Original*
G04 #@! TF.FileFunction,Legend,Top*
G04 #@! TF.FilePolarity,Positive*
%FSLAX46Y46*%
G04 Gerber Fmt 4.6, Leading zero omitted, Abs format (unit mm)*
G04 Created by KiCad (PCBNEW (5.1.0)-1) date 2021-03-09 16:36:58*
%MOMM*%
%LPD*%
G04 APERTURE LIST*
%ADD10C,0.150000*%
%ADD11C,0.120000*%
%ADD12R,1.602000X0.702000*%
%ADD13C,0.100000*%
%ADD14C,1.527000*%
%ADD15O,1.802000X1.802000*%
%ADD16R,1.802000X1.802000*%
%ADD17C,1.302000*%
%ADD18R,1.302000X1.302000*%
%ADD19R,0.502000X1.202000*%
%ADD20C,1.524400*%
%ADD21R,1.524400X1.524400*%
G04 APERTURE END LIST*
D10*
X124512533Y-53528980D02*
X125083961Y-53528980D01*
X124798247Y-54528980D02*
X124798247Y-53528980D01*
X125274438Y-53528980D02*
X125845866Y-53528980D01*
X125560152Y-54528980D02*
X125560152Y-53528980D01*
X126179200Y-54528980D02*
X126179200Y-53528980D01*
X126560152Y-53528980D01*
X126655390Y-53576600D01*
X126703009Y-53624219D01*
X126750628Y-53719457D01*
X126750628Y-53862314D01*
X126703009Y-53957552D01*
X126655390Y-54005171D01*
X126560152Y-54052790D01*
X126179200Y-54052790D01*
D11*
X137623504Y-55956076D02*
X136823504Y-55956076D01*
X136823504Y-55651314D01*
X136861600Y-55575123D01*
X136899695Y-55537028D01*
X136975885Y-55498933D01*
X137090171Y-55498933D01*
X137166361Y-55537028D01*
X137204457Y-55575123D01*
X137242552Y-55651314D01*
X137242552Y-55956076D01*
X137204457Y-54889409D02*
X137242552Y-54775123D01*
X137280647Y-54737028D01*
X137356838Y-54698933D01*
X137471123Y-54698933D01*
X137547314Y-54737028D01*
X137585409Y-54775123D01*
X137623504Y-54851314D01*
X137623504Y-55156076D01*
X136823504Y-55156076D01*
X136823504Y-54889409D01*
X136861600Y-54813219D01*
X136899695Y-54775123D01*
X136975885Y-54737028D01*
X137052076Y-54737028D01*
X137128266Y-54775123D01*
X137166361Y-54813219D01*
X137204457Y-54889409D01*
X137204457Y-55156076D01*
X136899695Y-54394171D02*
X136861600Y-54356076D01*
X136823504Y-54279885D01*
X136823504Y-54089409D01*
X136861600Y-54013219D01*
X136899695Y-53975123D01*
X136975885Y-53937028D01*
X137052076Y-53937028D01*
X137166361Y-53975123D01*
X137623504Y-54432266D01*
X137623504Y-53937028D01*
X135083504Y-56006876D02*
X134283504Y-56006876D01*
X134283504Y-55702114D01*
X134321600Y-55625923D01*
X134359695Y-55587828D01*
X134435885Y-55549733D01*
X134550171Y-55549733D01*
X134626361Y-55587828D01*
X134664457Y-55625923D01*
X134702552Y-55702114D01*
X134702552Y-56006876D01*
X134664457Y-54940209D02*
X134702552Y-54825923D01*
X134740647Y-54787828D01*
X134816838Y-54749733D01*
X134931123Y-54749733D01*
X135007314Y-54787828D01*
X135045409Y-54825923D01*
X135083504Y-54902114D01*
X135083504Y-55206876D01*
X134283504Y-55206876D01*
X134283504Y-54940209D01*
X134321600Y-54864019D01*
X134359695Y-54825923D01*
X134435885Y-54787828D01*
X134512076Y-54787828D01*
X134588266Y-54825923D01*
X134626361Y-54864019D01*
X134664457Y-54940209D01*
X134664457Y-55206876D01*
X134283504Y-54483066D02*
X134283504Y-53987828D01*
X134588266Y-54254495D01*
X134588266Y-54140209D01*
X134626361Y-54064019D01*
X134664457Y-54025923D01*
X134740647Y-53987828D01*
X134931123Y-53987828D01*
X135007314Y-54025923D01*
X135045409Y-54064019D01*
X135083504Y-54140209D01*
X135083504Y-54368780D01*
X135045409Y-54444971D01*
X135007314Y-54483066D01*
X132518104Y-55987780D02*
X131718104Y-55987780D01*
X131718104Y-55797304D01*
X131756200Y-55683019D01*
X131832390Y-55606828D01*
X131908580Y-55568733D01*
X132060961Y-55530638D01*
X132175247Y-55530638D01*
X132327628Y-55568733D01*
X132403819Y-55606828D01*
X132480009Y-55683019D01*
X132518104Y-55797304D01*
X132518104Y-55987780D01*
X131718104Y-54844923D02*
X131718104Y-54997304D01*
X131756200Y-55073495D01*
X131794295Y-55111590D01*
X131908580Y-55187780D01*
X132060961Y-55225876D01*
X132365723Y-55225876D01*
X132441914Y-55187780D01*
X132480009Y-55149685D01*
X132518104Y-55073495D01*
X132518104Y-54921114D01*
X132480009Y-54844923D01*
X132441914Y-54806828D01*
X132365723Y-54768733D01*
X132175247Y-54768733D01*
X132099057Y-54806828D01*
X132060961Y-54844923D01*
X132022866Y-54921114D01*
X132022866Y-55073495D01*
X132060961Y-55149685D01*
X132099057Y-55187780D01*
X132175247Y-55225876D01*
X131718104Y-54502066D02*
X132518104Y-53968733D01*
X131718104Y-53968733D02*
X132518104Y-54502066D01*
X131718104Y-53740161D02*
X132518104Y-53206828D01*
X131718104Y-53206828D02*
X132518104Y-53740161D01*
X130028904Y-55549761D02*
X129647952Y-55816428D01*
X130028904Y-56006904D02*
X129228904Y-56006904D01*
X129228904Y-55702142D01*
X129267000Y-55625952D01*
X129305095Y-55587857D01*
X129381285Y-55549761D01*
X129495571Y-55549761D01*
X129571761Y-55587857D01*
X129609857Y-55625952D01*
X129647952Y-55702142D01*
X129647952Y-56006904D01*
X129990809Y-55245000D02*
X130028904Y-55168809D01*
X130028904Y-55016428D01*
X129990809Y-54940238D01*
X129914619Y-54902142D01*
X129876523Y-54902142D01*
X129800333Y-54940238D01*
X129762238Y-55016428D01*
X129762238Y-55130714D01*
X129724142Y-55206904D01*
X129647952Y-55245000D01*
X129609857Y-55245000D01*
X129533666Y-55206904D01*
X129495571Y-55130714D01*
X129495571Y-55016428D01*
X129533666Y-54940238D01*
X129495571Y-54673571D02*
X129495571Y-54368809D01*
X129228904Y-54559285D02*
X129914619Y-54559285D01*
X129990809Y-54521190D01*
X130028904Y-54445000D01*
X130028904Y-54368809D01*
X125780800Y-55041800D02*
X125780800Y-55346600D01*
X125628400Y-55041800D02*
X125628400Y-55346600D01*
X125704600Y-55016400D02*
X125704600Y-55372000D01*
X124434600Y-55372000D02*
X126949200Y-55372000D01*
X127101600Y-55727600D02*
G75*
G03X127101600Y-55727600I-152400J0D01*
G01*
X124582706Y-55727600D02*
G75*
G03X124582706Y-55727600I-148106J0D01*
G01*
D10*
X129491123Y-94746819D02*
X129538742Y-94699200D01*
X129633980Y-94651580D01*
X129872076Y-94651580D01*
X129967314Y-94699200D01*
X130014933Y-94746819D01*
X130062552Y-94842057D01*
X130062552Y-94937295D01*
X130014933Y-95080152D01*
X129443504Y-95651580D01*
X130062552Y-95651580D01*
X130395885Y-94651580D02*
X131062552Y-94651580D01*
X130633980Y-95651580D01*
X132014933Y-95556342D02*
X131967314Y-95603961D01*
X131824457Y-95651580D01*
X131729219Y-95651580D01*
X131586361Y-95603961D01*
X131491123Y-95508723D01*
X131443504Y-95413485D01*
X131395885Y-95223009D01*
X131395885Y-95080152D01*
X131443504Y-94889676D01*
X131491123Y-94794438D01*
X131586361Y-94699200D01*
X131729219Y-94651580D01*
X131824457Y-94651580D01*
X131967314Y-94699200D01*
X132014933Y-94746819D01*
X132633980Y-94651580D02*
X132729219Y-94651580D01*
X132824457Y-94699200D01*
X132872076Y-94746819D01*
X132919695Y-94842057D01*
X132967314Y-95032533D01*
X132967314Y-95270628D01*
X132919695Y-95461104D01*
X132872076Y-95556342D01*
X132824457Y-95603961D01*
X132729219Y-95651580D01*
X132633980Y-95651580D01*
X132538742Y-95603961D01*
X132491123Y-95556342D01*
X132443504Y-95461104D01*
X132395885Y-95270628D01*
X132395885Y-95032533D01*
X132443504Y-94842057D01*
X132491123Y-94746819D01*
X132538742Y-94699200D01*
X132633980Y-94651580D01*
X133919695Y-95651580D02*
X133348266Y-95651580D01*
X133633980Y-95651580D02*
X133633980Y-94651580D01*
X133538742Y-94794438D01*
X133443504Y-94889676D01*
X133348266Y-94937295D01*
X134538742Y-94651580D02*
X134633980Y-94651580D01*
X134729219Y-94699200D01*
X134776838Y-94746819D01*
X134824457Y-94842057D01*
X134872076Y-95032533D01*
X134872076Y-95270628D01*
X134824457Y-95461104D01*
X134776838Y-95556342D01*
X134729219Y-95603961D01*
X134633980Y-95651580D01*
X134538742Y-95651580D01*
X134443504Y-95603961D01*
X134395885Y-95556342D01*
X134348266Y-95461104D01*
X134300647Y-95270628D01*
X134300647Y-95032533D01*
X134348266Y-94842057D01*
X134395885Y-94746819D01*
X134443504Y-94699200D01*
X134538742Y-94651580D01*
X130411400Y-72166000D02*
X129036400Y-72166000D01*
X130411400Y-82291000D02*
X134561400Y-82291000D01*
X130411400Y-72141000D02*
X134561400Y-72141000D01*
X130411400Y-82291000D02*
X130411400Y-82186000D01*
X134561400Y-82291000D02*
X134561400Y-82186000D01*
X134561400Y-72141000D02*
X134561400Y-72246000D01*
X130411400Y-72141000D02*
X130411400Y-72166000D01*
D11*
X136457100Y-64864064D02*
X136457100Y-63659936D01*
X134637100Y-64864064D02*
X134637100Y-63659936D01*
X129200600Y-70951400D02*
X129200600Y-69621400D01*
X130530600Y-70951400D02*
X129200600Y-70951400D01*
X131800600Y-70951400D02*
X131800600Y-68291400D01*
X131800600Y-68291400D02*
X134400600Y-68291400D01*
X131800600Y-70951400D02*
X134400600Y-70951400D01*
X134400600Y-70951400D02*
X134400600Y-68291400D01*
X137797000Y-66140601D02*
X138197000Y-66140601D01*
X137997000Y-66340601D02*
X137997000Y-65940601D01*
X138822000Y-61989800D02*
X139562000Y-61989800D01*
X138655000Y-62029800D02*
X139729000Y-62029800D01*
X138528000Y-62069800D02*
X139856000Y-62069800D01*
X138424000Y-62109800D02*
X139960000Y-62109800D01*
X138333000Y-62149800D02*
X140051000Y-62149800D01*
X138252000Y-62189800D02*
X140132000Y-62189800D01*
X138179000Y-62229800D02*
X140205000Y-62229800D01*
X138112000Y-62269800D02*
X140272000Y-62269800D01*
X138050000Y-62309800D02*
X140334000Y-62309800D01*
X137992000Y-62349800D02*
X140392000Y-62349800D01*
X137938000Y-62389800D02*
X140446000Y-62389800D01*
X137888000Y-62429800D02*
X140496000Y-62429800D01*
X137841000Y-62469800D02*
X140543000Y-62469800D01*
X140032000Y-62509800D02*
X140588000Y-62509800D01*
X137796000Y-62509800D02*
X138352000Y-62509800D01*
X140032000Y-62549800D02*
X140630000Y-62549800D01*
X137754000Y-62549800D02*
X138352000Y-62549800D01*
X140032000Y-62589800D02*
X140670000Y-62589800D01*
X137714000Y-62589800D02*
X138352000Y-62589800D01*
X140032000Y-62629800D02*
X140708000Y-62629800D01*
X137676000Y-62629800D02*
X138352000Y-62629800D01*
X140032000Y-62669800D02*
X140744000Y-62669800D01*
X137640000Y-62669800D02*
X138352000Y-62669800D01*
X140032000Y-62709800D02*
X140779000Y-62709800D01*
X137605000Y-62709800D02*
X138352000Y-62709800D01*
X140032000Y-62749800D02*
X140811000Y-62749800D01*
X137573000Y-62749800D02*
X138352000Y-62749800D01*
X140032000Y-62789800D02*
X140842000Y-62789800D01*
X137542000Y-62789800D02*
X138352000Y-62789800D01*
X140032000Y-62829800D02*
X140872000Y-62829800D01*
X137512000Y-62829800D02*
X138352000Y-62829800D01*
X140032000Y-62869800D02*
X140900000Y-62869800D01*
X137484000Y-62869800D02*
X138352000Y-62869800D01*
X140032000Y-62909800D02*
X140927000Y-62909800D01*
X137457000Y-62909800D02*
X138352000Y-62909800D01*
X140032000Y-62949800D02*
X140952000Y-62949800D01*
X137432000Y-62949800D02*
X138352000Y-62949800D01*
X140032000Y-62989800D02*
X140977000Y-62989800D01*
X137407000Y-62989800D02*
X138352000Y-62989800D01*
X140032000Y-63029800D02*
X141000000Y-63029800D01*
X137384000Y-63029800D02*
X138352000Y-63029800D01*
X140032000Y-63069800D02*
X141022000Y-63069800D01*
X137362000Y-63069800D02*
X138352000Y-63069800D01*
X140032000Y-63109800D02*
X141043000Y-63109800D01*
X137341000Y-63109800D02*
X138352000Y-63109800D01*
X140032000Y-63149800D02*
X141062000Y-63149800D01*
X137322000Y-63149800D02*
X138352000Y-63149800D01*
X140032000Y-63189800D02*
X141081000Y-63189800D01*
X137303000Y-63189800D02*
X138352000Y-63189800D01*
X140032000Y-63229800D02*
X141099000Y-63229800D01*
X137285000Y-63229800D02*
X138352000Y-63229800D01*
X140032000Y-63269800D02*
X141116000Y-63269800D01*
X137268000Y-63269800D02*
X138352000Y-63269800D01*
X140032000Y-63309800D02*
X141132000Y-63309800D01*
X137252000Y-63309800D02*
X138352000Y-63309800D01*
X140032000Y-63349800D02*
X141146000Y-63349800D01*
X137238000Y-63349800D02*
X138352000Y-63349800D01*
X140032000Y-63390800D02*
X141160000Y-63390800D01*
X137224000Y-63390800D02*
X138352000Y-63390800D01*
X140032000Y-63430800D02*
X141174000Y-63430800D01*
X137210000Y-63430800D02*
X138352000Y-63430800D01*
X140032000Y-63470800D02*
X141186000Y-63470800D01*
X137198000Y-63470800D02*
X138352000Y-63470800D01*
X140032000Y-63510800D02*
X141197000Y-63510800D01*
X137187000Y-63510800D02*
X138352000Y-63510800D01*
X140032000Y-63550800D02*
X141208000Y-63550800D01*
X137176000Y-63550800D02*
X138352000Y-63550800D01*
X140032000Y-63590800D02*
X141217000Y-63590800D01*
X137167000Y-63590800D02*
X138352000Y-63590800D01*
X140032000Y-63630800D02*
X141226000Y-63630800D01*
X137158000Y-63630800D02*
X138352000Y-63630800D01*
X140032000Y-63670800D02*
X141234000Y-63670800D01*
X137150000Y-63670800D02*
X138352000Y-63670800D01*
X140032000Y-63710800D02*
X141242000Y-63710800D01*
X137142000Y-63710800D02*
X138352000Y-63710800D01*
X140032000Y-63750800D02*
X141248000Y-63750800D01*
X137136000Y-63750800D02*
X138352000Y-63750800D01*
X140032000Y-63790800D02*
X141254000Y-63790800D01*
X137130000Y-63790800D02*
X138352000Y-63790800D01*
X140032000Y-63830800D02*
X141259000Y-63830800D01*
X137125000Y-63830800D02*
X138352000Y-63830800D01*
X140032000Y-63870800D02*
X141263000Y-63870800D01*
X137121000Y-63870800D02*
X138352000Y-63870800D01*
X140032000Y-63910800D02*
X141266000Y-63910800D01*
X137118000Y-63910800D02*
X138352000Y-63910800D01*
X140032000Y-63950800D02*
X141269000Y-63950800D01*
X137115000Y-63950800D02*
X138352000Y-63950800D01*
X137113000Y-63990800D02*
X138352000Y-63990800D01*
X140032000Y-63990800D02*
X141271000Y-63990800D01*
X137112000Y-64030800D02*
X138352000Y-64030800D01*
X140032000Y-64030800D02*
X141272000Y-64030800D01*
X137112000Y-64070800D02*
X138352000Y-64070800D01*
X140032000Y-64070800D02*
X141272000Y-64070800D01*
X141312000Y-64070800D02*
G75*
G03X141312000Y-64070800I-2120000J0D01*
G01*
D10*
X123137800Y-65404400D02*
X123137800Y-66479400D01*
X126262800Y-65404400D02*
X126262800Y-62154400D01*
X123012800Y-65404400D02*
X123012800Y-62154400D01*
X126262800Y-65404400D02*
X126037800Y-65404400D01*
X126262800Y-62154400D02*
X126037800Y-62154400D01*
X123012800Y-62154400D02*
X123237800Y-62154400D01*
X123012800Y-65404400D02*
X123137800Y-65404400D01*
D11*
X138515400Y-56302600D02*
X138515400Y-57632600D01*
X137185400Y-56302600D02*
X138515400Y-56302600D01*
X135915400Y-56302600D02*
X135915400Y-58962600D01*
X135915400Y-58962600D02*
X123155400Y-58962600D01*
X135915400Y-56302600D02*
X123155400Y-56302600D01*
X123155400Y-56302600D02*
X123155400Y-58962600D01*
X132198700Y-63659936D02*
X132198700Y-64864064D01*
X134018700Y-63659936D02*
X134018700Y-64864064D01*
X128747436Y-64130600D02*
X129951564Y-64130600D01*
X128747436Y-62310600D02*
X129951564Y-62310600D01*
X131809500Y-64473200D02*
X127749500Y-64473200D01*
X131809500Y-66743200D02*
X131809500Y-64473200D01*
X127749500Y-66743200D02*
X131809500Y-66743200D01*
X131809500Y-59698000D02*
X127749500Y-59698000D01*
X131809500Y-61968000D02*
X131809500Y-59698000D01*
X127749500Y-61968000D02*
X131809500Y-61968000D01*
X138547800Y-68545400D02*
X139877800Y-68545400D01*
X138547800Y-69875400D02*
X138547800Y-68545400D01*
X138547800Y-71145400D02*
X141207800Y-71145400D01*
X141207800Y-71145400D02*
X141207800Y-104225400D01*
X138547800Y-71145400D02*
X138547800Y-104225400D01*
X138547800Y-104225400D02*
X141207800Y-104225400D01*
X123307800Y-68545400D02*
X124637800Y-68545400D01*
X123307800Y-69875400D02*
X123307800Y-68545400D01*
X123307800Y-71145400D02*
X125967800Y-71145400D01*
X125967800Y-71145400D02*
X125967800Y-104225400D01*
X123307800Y-71145400D02*
X123307800Y-104225400D01*
X123307800Y-104225400D02*
X125967800Y-104225400D01*
X140843000Y-84353400D02*
X134035800Y-84353400D01*
X140843000Y-103657400D02*
X140843000Y-84353400D01*
X123672600Y-103657400D02*
X140843000Y-103657400D01*
X123672600Y-85166200D02*
X123672600Y-103657400D01*
X124485400Y-84353400D02*
X132918200Y-84353400D01*
X123672600Y-85166200D02*
X124485400Y-84353400D01*
D10*
X131151380Y-77952504D02*
X131960904Y-77952504D01*
X132056142Y-77904885D01*
X132103761Y-77857266D01*
X132151380Y-77762028D01*
X132151380Y-77571552D01*
X132103761Y-77476314D01*
X132056142Y-77428695D01*
X131960904Y-77381076D01*
X131151380Y-77381076D01*
X132151380Y-76381076D02*
X132151380Y-76952504D01*
X132151380Y-76666790D02*
X131151380Y-76666790D01*
X131294238Y-76762028D01*
X131389476Y-76857266D01*
X131437095Y-76952504D01*
X134179480Y-64428666D02*
X133703290Y-64762000D01*
X134179480Y-65000095D02*
X133179480Y-65000095D01*
X133179480Y-64619142D01*
X133227100Y-64523904D01*
X133274719Y-64476285D01*
X133369957Y-64428666D01*
X133512814Y-64428666D01*
X133608052Y-64476285D01*
X133655671Y-64523904D01*
X133703290Y-64619142D01*
X133703290Y-65000095D01*
X133179480Y-64095333D02*
X133179480Y-63476285D01*
X133560433Y-63809619D01*
X133560433Y-63666761D01*
X133608052Y-63571523D01*
X133655671Y-63523904D01*
X133750909Y-63476285D01*
X133989004Y-63476285D01*
X134084242Y-63523904D01*
X134131861Y-63571523D01*
X134179480Y-63666761D01*
X134179480Y-63952476D01*
X134131861Y-64047714D01*
X134084242Y-64095333D01*
X127652980Y-69954733D02*
X128367266Y-69954733D01*
X128510123Y-70002352D01*
X128605361Y-70097590D01*
X128652980Y-70240447D01*
X128652980Y-70335685D01*
X127652980Y-69049971D02*
X127652980Y-69240447D01*
X127700600Y-69335685D01*
X127748219Y-69383304D01*
X127891076Y-69478542D01*
X128081552Y-69526161D01*
X128462504Y-69526161D01*
X128557742Y-69478542D01*
X128605361Y-69430923D01*
X128652980Y-69335685D01*
X128652980Y-69145209D01*
X128605361Y-69049971D01*
X128557742Y-69002352D01*
X128462504Y-68954733D01*
X128224409Y-68954733D01*
X128129171Y-69002352D01*
X128081552Y-69049971D01*
X128033933Y-69145209D01*
X128033933Y-69335685D01*
X128081552Y-69430923D01*
X128129171Y-69478542D01*
X128224409Y-69526161D01*
X139050733Y-61544342D02*
X139003114Y-61591961D01*
X138860257Y-61639580D01*
X138765019Y-61639580D01*
X138622161Y-61591961D01*
X138526923Y-61496723D01*
X138479304Y-61401485D01*
X138431685Y-61211009D01*
X138431685Y-61068152D01*
X138479304Y-60877676D01*
X138526923Y-60782438D01*
X138622161Y-60687200D01*
X138765019Y-60639580D01*
X138860257Y-60639580D01*
X139003114Y-60687200D01*
X139050733Y-60734819D01*
X140003114Y-61639580D02*
X139431685Y-61639580D01*
X139717400Y-61639580D02*
X139717400Y-60639580D01*
X139622161Y-60782438D01*
X139526923Y-60877676D01*
X139431685Y-60925295D01*
X123875895Y-63333380D02*
X123875895Y-64142904D01*
X123923514Y-64238142D01*
X123971133Y-64285761D01*
X124066371Y-64333380D01*
X124256847Y-64333380D01*
X124352085Y-64285761D01*
X124399704Y-64238142D01*
X124447323Y-64142904D01*
X124447323Y-63333380D01*
X124828276Y-63333380D02*
X125447323Y-63333380D01*
X125113990Y-63714333D01*
X125256847Y-63714333D01*
X125352085Y-63761952D01*
X125399704Y-63809571D01*
X125447323Y-63904809D01*
X125447323Y-64142904D01*
X125399704Y-64238142D01*
X125352085Y-64285761D01*
X125256847Y-64333380D01*
X124971133Y-64333380D01*
X124875895Y-64285761D01*
X124828276Y-64238142D01*
X139620666Y-57211980D02*
X139620666Y-57926266D01*
X139573047Y-58069123D01*
X139477809Y-58164361D01*
X139334952Y-58211980D01*
X139239714Y-58211980D01*
X140525428Y-57545314D02*
X140525428Y-58211980D01*
X140287333Y-57164361D02*
X140049238Y-57878647D01*
X140668285Y-57878647D01*
X132891233Y-61513980D02*
X132557900Y-61037790D01*
X132319804Y-61513980D02*
X132319804Y-60513980D01*
X132700757Y-60513980D01*
X132795995Y-60561600D01*
X132843614Y-60609219D01*
X132891233Y-60704457D01*
X132891233Y-60847314D01*
X132843614Y-60942552D01*
X132795995Y-60990171D01*
X132700757Y-61037790D01*
X132319804Y-61037790D01*
X133272185Y-60609219D02*
X133319804Y-60561600D01*
X133415042Y-60513980D01*
X133653138Y-60513980D01*
X133748376Y-60561600D01*
X133795995Y-60609219D01*
X133843614Y-60704457D01*
X133843614Y-60799695D01*
X133795995Y-60942552D01*
X133224566Y-61513980D01*
X133843614Y-61513980D01*
X126703080Y-63463466D02*
X126226890Y-63796800D01*
X126703080Y-64034895D02*
X125703080Y-64034895D01*
X125703080Y-63653942D01*
X125750700Y-63558704D01*
X125798319Y-63511085D01*
X125893557Y-63463466D01*
X126036414Y-63463466D01*
X126131652Y-63511085D01*
X126179271Y-63558704D01*
X126226890Y-63653942D01*
X126226890Y-64034895D01*
X126703080Y-62511085D02*
X126703080Y-63082514D01*
X126703080Y-62796800D02*
X125703080Y-62796800D01*
X125845938Y-62892038D01*
X125941176Y-62987276D01*
X125988795Y-63082514D01*
X126753880Y-66270095D02*
X125753880Y-66270095D01*
X125753880Y-66032000D01*
X125801500Y-65889142D01*
X125896738Y-65793904D01*
X125991976Y-65746285D01*
X126182452Y-65698666D01*
X126325309Y-65698666D01*
X126515785Y-65746285D01*
X126611023Y-65793904D01*
X126706261Y-65889142D01*
X126753880Y-66032000D01*
X126753880Y-66270095D01*
X125849119Y-65317714D02*
X125801500Y-65270095D01*
X125753880Y-65174857D01*
X125753880Y-64936761D01*
X125801500Y-64841523D01*
X125849119Y-64793904D01*
X125944357Y-64746285D01*
X126039595Y-64746285D01*
X126182452Y-64793904D01*
X126753880Y-65365333D01*
X126753880Y-64746285D01*
X126677680Y-61367895D02*
X125677680Y-61367895D01*
X125677680Y-61129800D01*
X125725300Y-60986942D01*
X125820538Y-60891704D01*
X125915776Y-60844085D01*
X126106252Y-60796466D01*
X126249109Y-60796466D01*
X126439585Y-60844085D01*
X126534823Y-60891704D01*
X126630061Y-60986942D01*
X126677680Y-61129800D01*
X126677680Y-61367895D01*
X126677680Y-59844085D02*
X126677680Y-60415514D01*
X126677680Y-60129800D02*
X125677680Y-60129800D01*
X125820538Y-60225038D01*
X125915776Y-60320276D01*
X125963395Y-60415514D01*
X139112666Y-66762380D02*
X139112666Y-67476666D01*
X139065047Y-67619523D01*
X138969809Y-67714761D01*
X138826952Y-67762380D01*
X138731714Y-67762380D01*
X139541238Y-66857619D02*
X139588857Y-66810000D01*
X139684095Y-66762380D01*
X139922190Y-66762380D01*
X140017428Y-66810000D01*
X140065047Y-66857619D01*
X140112666Y-66952857D01*
X140112666Y-67048095D01*
X140065047Y-67190952D01*
X139493619Y-67762380D01*
X140112666Y-67762380D01*
X126666666Y-74966580D02*
X126666666Y-75680866D01*
X126619047Y-75823723D01*
X126523809Y-75918961D01*
X126380952Y-75966580D01*
X126285714Y-75966580D01*
X127666666Y-75966580D02*
X127095238Y-75966580D01*
X127380952Y-75966580D02*
X127380952Y-74966580D01*
X127285714Y-75109438D01*
X127190476Y-75204676D01*
X127095238Y-75252295D01*
X131445095Y-91400380D02*
X131445095Y-92209904D01*
X131492714Y-92305142D01*
X131540333Y-92352761D01*
X131635571Y-92400380D01*
X131826047Y-92400380D01*
X131921285Y-92352761D01*
X131968904Y-92305142D01*
X132016523Y-92209904D01*
X132016523Y-91400380D01*
X132445095Y-91495619D02*
X132492714Y-91448000D01*
X132587952Y-91400380D01*
X132826047Y-91400380D01*
X132921285Y-91448000D01*
X132968904Y-91495619D01*
X133016523Y-91590857D01*
X133016523Y-91686095D01*
X132968904Y-91828952D01*
X132397476Y-92400380D01*
X133016523Y-92400380D01*
%LPC*%
D12*
X135186400Y-72771000D03*
X135186400Y-74041000D03*
X135186400Y-75311000D03*
X135186400Y-76581000D03*
X135186400Y-77851000D03*
X135186400Y-79121000D03*
X135186400Y-80391000D03*
X135186400Y-81661000D03*
X129786400Y-81661000D03*
X129786400Y-80391000D03*
X129786400Y-79121000D03*
X129786400Y-77851000D03*
X129786400Y-76581000D03*
X129786400Y-75311000D03*
X129786400Y-74041000D03*
X129786400Y-72771000D03*
D13*
G36*
X136231463Y-62012290D02*
G01*
X136257469Y-62016148D01*
X136282971Y-62022535D01*
X136307724Y-62031392D01*
X136331490Y-62042633D01*
X136354039Y-62056148D01*
X136375156Y-62071809D01*
X136394635Y-62089465D01*
X136412291Y-62108944D01*
X136427952Y-62130061D01*
X136441467Y-62152610D01*
X136452708Y-62176376D01*
X136461565Y-62201129D01*
X136467952Y-62226631D01*
X136471810Y-62252637D01*
X136473100Y-62278895D01*
X136473100Y-63270105D01*
X136471810Y-63296363D01*
X136467952Y-63322369D01*
X136461565Y-63347871D01*
X136452708Y-63372624D01*
X136441467Y-63396390D01*
X136427952Y-63418939D01*
X136412291Y-63440056D01*
X136394635Y-63459535D01*
X136375156Y-63477191D01*
X136354039Y-63492852D01*
X136331490Y-63506367D01*
X136307724Y-63517608D01*
X136282971Y-63526465D01*
X136257469Y-63532852D01*
X136231463Y-63536710D01*
X136205205Y-63538000D01*
X134888995Y-63538000D01*
X134862737Y-63536710D01*
X134836731Y-63532852D01*
X134811229Y-63526465D01*
X134786476Y-63517608D01*
X134762710Y-63506367D01*
X134740161Y-63492852D01*
X134719044Y-63477191D01*
X134699565Y-63459535D01*
X134681909Y-63440056D01*
X134666248Y-63418939D01*
X134652733Y-63396390D01*
X134641492Y-63372624D01*
X134632635Y-63347871D01*
X134626248Y-63322369D01*
X134622390Y-63296363D01*
X134621100Y-63270105D01*
X134621100Y-62278895D01*
X134622390Y-62252637D01*
X134626248Y-62226631D01*
X134632635Y-62201129D01*
X134641492Y-62176376D01*
X134652733Y-62152610D01*
X134666248Y-62130061D01*
X134681909Y-62108944D01*
X134699565Y-62089465D01*
X134719044Y-62071809D01*
X134740161Y-62056148D01*
X134762710Y-62042633D01*
X134786476Y-62031392D01*
X134811229Y-62022535D01*
X134836731Y-62016148D01*
X134862737Y-62012290D01*
X134888995Y-62011000D01*
X136205205Y-62011000D01*
X136231463Y-62012290D01*
X136231463Y-62012290D01*
G37*
D14*
X135547100Y-62774500D03*
D13*
G36*
X136231463Y-64987290D02*
G01*
X136257469Y-64991148D01*
X136282971Y-64997535D01*
X136307724Y-65006392D01*
X136331490Y-65017633D01*
X136354039Y-65031148D01*
X136375156Y-65046809D01*
X136394635Y-65064465D01*
X136412291Y-65083944D01*
X136427952Y-65105061D01*
X136441467Y-65127610D01*
X136452708Y-65151376D01*
X136461565Y-65176129D01*
X136467952Y-65201631D01*
X136471810Y-65227637D01*
X136473100Y-65253895D01*
X136473100Y-66245105D01*
X136471810Y-66271363D01*
X136467952Y-66297369D01*
X136461565Y-66322871D01*
X136452708Y-66347624D01*
X136441467Y-66371390D01*
X136427952Y-66393939D01*
X136412291Y-66415056D01*
X136394635Y-66434535D01*
X136375156Y-66452191D01*
X136354039Y-66467852D01*
X136331490Y-66481367D01*
X136307724Y-66492608D01*
X136282971Y-66501465D01*
X136257469Y-66507852D01*
X136231463Y-66511710D01*
X136205205Y-66513000D01*
X134888995Y-66513000D01*
X134862737Y-66511710D01*
X134836731Y-66507852D01*
X134811229Y-66501465D01*
X134786476Y-66492608D01*
X134762710Y-66481367D01*
X134740161Y-66467852D01*
X134719044Y-66452191D01*
X134699565Y-66434535D01*
X134681909Y-66415056D01*
X134666248Y-66393939D01*
X134652733Y-66371390D01*
X134641492Y-66347624D01*
X134632635Y-66322871D01*
X134626248Y-66297369D01*
X134622390Y-66271363D01*
X134621100Y-66245105D01*
X134621100Y-65253895D01*
X134622390Y-65227637D01*
X134626248Y-65201631D01*
X134632635Y-65176129D01*
X134641492Y-65151376D01*
X134652733Y-65127610D01*
X134666248Y-65105061D01*
X134681909Y-65083944D01*
X134699565Y-65064465D01*
X134719044Y-65046809D01*
X134740161Y-65031148D01*
X134762710Y-65017633D01*
X134786476Y-65006392D01*
X134811229Y-64997535D01*
X134836731Y-64991148D01*
X134862737Y-64987290D01*
X134888995Y-64986000D01*
X136205205Y-64986000D01*
X136231463Y-64987290D01*
X136231463Y-64987290D01*
G37*
D14*
X135547100Y-65749500D03*
D15*
X133070600Y-69621400D03*
D16*
X130530600Y-69621400D03*
D17*
X139192000Y-63320800D03*
D18*
X139192000Y-64820800D03*
D19*
X123662800Y-61629400D03*
X124312800Y-61629400D03*
X124962800Y-61629400D03*
X125612800Y-61629400D03*
X125612800Y-65929400D03*
X124962800Y-65929400D03*
X124312800Y-65929400D03*
X123662800Y-65929400D03*
D15*
X124485400Y-57632600D03*
X127025400Y-57632600D03*
X129565400Y-57632600D03*
X132105400Y-57632600D03*
X134645400Y-57632600D03*
D16*
X137185400Y-57632600D03*
D13*
G36*
X133793063Y-64987290D02*
G01*
X133819069Y-64991148D01*
X133844571Y-64997535D01*
X133869324Y-65006392D01*
X133893090Y-65017633D01*
X133915639Y-65031148D01*
X133936756Y-65046809D01*
X133956235Y-65064465D01*
X133973891Y-65083944D01*
X133989552Y-65105061D01*
X134003067Y-65127610D01*
X134014308Y-65151376D01*
X134023165Y-65176129D01*
X134029552Y-65201631D01*
X134033410Y-65227637D01*
X134034700Y-65253895D01*
X134034700Y-66245105D01*
X134033410Y-66271363D01*
X134029552Y-66297369D01*
X134023165Y-66322871D01*
X134014308Y-66347624D01*
X134003067Y-66371390D01*
X133989552Y-66393939D01*
X133973891Y-66415056D01*
X133956235Y-66434535D01*
X133936756Y-66452191D01*
X133915639Y-66467852D01*
X133893090Y-66481367D01*
X133869324Y-66492608D01*
X133844571Y-66501465D01*
X133819069Y-66507852D01*
X133793063Y-66511710D01*
X133766805Y-66513000D01*
X132450595Y-66513000D01*
X132424337Y-66511710D01*
X132398331Y-66507852D01*
X132372829Y-66501465D01*
X132348076Y-66492608D01*
X132324310Y-66481367D01*
X132301761Y-66467852D01*
X132280644Y-66452191D01*
X132261165Y-66434535D01*
X132243509Y-66415056D01*
X132227848Y-66393939D01*
X132214333Y-66371390D01*
X132203092Y-66347624D01*
X132194235Y-66322871D01*
X132187848Y-66297369D01*
X132183990Y-66271363D01*
X132182700Y-66245105D01*
X132182700Y-65253895D01*
X132183990Y-65227637D01*
X132187848Y-65201631D01*
X132194235Y-65176129D01*
X132203092Y-65151376D01*
X132214333Y-65127610D01*
X132227848Y-65105061D01*
X132243509Y-65083944D01*
X132261165Y-65064465D01*
X132280644Y-65046809D01*
X132301761Y-65031148D01*
X132324310Y-65017633D01*
X132348076Y-65006392D01*
X132372829Y-64997535D01*
X132398331Y-64991148D01*
X132424337Y-64987290D01*
X132450595Y-64986000D01*
X133766805Y-64986000D01*
X133793063Y-64987290D01*
X133793063Y-64987290D01*
G37*
D14*
X133108700Y-65749500D03*
D13*
G36*
X133793063Y-62012290D02*
G01*
X133819069Y-62016148D01*
X133844571Y-62022535D01*
X133869324Y-62031392D01*
X133893090Y-62042633D01*
X133915639Y-62056148D01*
X133936756Y-62071809D01*
X133956235Y-62089465D01*
X133973891Y-62108944D01*
X133989552Y-62130061D01*
X134003067Y-62152610D01*
X134014308Y-62176376D01*
X134023165Y-62201129D01*
X134029552Y-62226631D01*
X134033410Y-62252637D01*
X134034700Y-62278895D01*
X134034700Y-63270105D01*
X134033410Y-63296363D01*
X134029552Y-63322369D01*
X134023165Y-63347871D01*
X134014308Y-63372624D01*
X134003067Y-63396390D01*
X133989552Y-63418939D01*
X133973891Y-63440056D01*
X133956235Y-63459535D01*
X133936756Y-63477191D01*
X133915639Y-63492852D01*
X133893090Y-63506367D01*
X133869324Y-63517608D01*
X133844571Y-63526465D01*
X133819069Y-63532852D01*
X133793063Y-63536710D01*
X133766805Y-63538000D01*
X132450595Y-63538000D01*
X132424337Y-63536710D01*
X132398331Y-63532852D01*
X132372829Y-63526465D01*
X132348076Y-63517608D01*
X132324310Y-63506367D01*
X132301761Y-63492852D01*
X132280644Y-63477191D01*
X132261165Y-63459535D01*
X132243509Y-63440056D01*
X132227848Y-63418939D01*
X132214333Y-63396390D01*
X132203092Y-63372624D01*
X132194235Y-63347871D01*
X132187848Y-63322369D01*
X132183990Y-63296363D01*
X132182700Y-63270105D01*
X132182700Y-62278895D01*
X132183990Y-62252637D01*
X132187848Y-62226631D01*
X132194235Y-62201129D01*
X132203092Y-62176376D01*
X132214333Y-62152610D01*
X132227848Y-62130061D01*
X132243509Y-62108944D01*
X132261165Y-62089465D01*
X132280644Y-62071809D01*
X132301761Y-62056148D01*
X132324310Y-62042633D01*
X132348076Y-62031392D01*
X132372829Y-62022535D01*
X132398331Y-62016148D01*
X132424337Y-62012290D01*
X132450595Y-62011000D01*
X133766805Y-62011000D01*
X133793063Y-62012290D01*
X133793063Y-62012290D01*
G37*
D14*
X133108700Y-62774500D03*
D13*
G36*
X131358863Y-62295890D02*
G01*
X131384869Y-62299748D01*
X131410371Y-62306135D01*
X131435124Y-62314992D01*
X131458890Y-62326233D01*
X131481439Y-62339748D01*
X131502556Y-62355409D01*
X131522035Y-62373065D01*
X131539691Y-62392544D01*
X131555352Y-62413661D01*
X131568867Y-62436210D01*
X131580108Y-62459976D01*
X131588965Y-62484729D01*
X131595352Y-62510231D01*
X131599210Y-62536237D01*
X131600500Y-62562495D01*
X131600500Y-63878705D01*
X131599210Y-63904963D01*
X131595352Y-63930969D01*
X131588965Y-63956471D01*
X131580108Y-63981224D01*
X131568867Y-64004990D01*
X131555352Y-64027539D01*
X131539691Y-64048656D01*
X131522035Y-64068135D01*
X131502556Y-64085791D01*
X131481439Y-64101452D01*
X131458890Y-64114967D01*
X131435124Y-64126208D01*
X131410371Y-64135065D01*
X131384869Y-64141452D01*
X131358863Y-64145310D01*
X131332605Y-64146600D01*
X130341395Y-64146600D01*
X130315137Y-64145310D01*
X130289131Y-64141452D01*
X130263629Y-64135065D01*
X130238876Y-64126208D01*
X130215110Y-64114967D01*
X130192561Y-64101452D01*
X130171444Y-64085791D01*
X130151965Y-64068135D01*
X130134309Y-64048656D01*
X130118648Y-64027539D01*
X130105133Y-64004990D01*
X130093892Y-63981224D01*
X130085035Y-63956471D01*
X130078648Y-63930969D01*
X130074790Y-63904963D01*
X130073500Y-63878705D01*
X130073500Y-62562495D01*
X130074790Y-62536237D01*
X130078648Y-62510231D01*
X130085035Y-62484729D01*
X130093892Y-62459976D01*
X130105133Y-62436210D01*
X130118648Y-62413661D01*
X130134309Y-62392544D01*
X130151965Y-62373065D01*
X130171444Y-62355409D01*
X130192561Y-62339748D01*
X130215110Y-62326233D01*
X130238876Y-62314992D01*
X130263629Y-62306135D01*
X130289131Y-62299748D01*
X130315137Y-62295890D01*
X130341395Y-62294600D01*
X131332605Y-62294600D01*
X131358863Y-62295890D01*
X131358863Y-62295890D01*
G37*
D14*
X130837000Y-63220600D03*
D13*
G36*
X128383863Y-62295890D02*
G01*
X128409869Y-62299748D01*
X128435371Y-62306135D01*
X128460124Y-62314992D01*
X128483890Y-62326233D01*
X128506439Y-62339748D01*
X128527556Y-62355409D01*
X128547035Y-62373065D01*
X128564691Y-62392544D01*
X128580352Y-62413661D01*
X128593867Y-62436210D01*
X128605108Y-62459976D01*
X128613965Y-62484729D01*
X128620352Y-62510231D01*
X128624210Y-62536237D01*
X128625500Y-62562495D01*
X128625500Y-63878705D01*
X128624210Y-63904963D01*
X128620352Y-63930969D01*
X128613965Y-63956471D01*
X128605108Y-63981224D01*
X128593867Y-64004990D01*
X128580352Y-64027539D01*
X128564691Y-64048656D01*
X128547035Y-64068135D01*
X128527556Y-64085791D01*
X128506439Y-64101452D01*
X128483890Y-64114967D01*
X128460124Y-64126208D01*
X128435371Y-64135065D01*
X128409869Y-64141452D01*
X128383863Y-64145310D01*
X128357605Y-64146600D01*
X127366395Y-64146600D01*
X127340137Y-64145310D01*
X127314131Y-64141452D01*
X127288629Y-64135065D01*
X127263876Y-64126208D01*
X127240110Y-64114967D01*
X127217561Y-64101452D01*
X127196444Y-64085791D01*
X127176965Y-64068135D01*
X127159309Y-64048656D01*
X127143648Y-64027539D01*
X127130133Y-64004990D01*
X127118892Y-63981224D01*
X127110035Y-63956471D01*
X127103648Y-63930969D01*
X127099790Y-63904963D01*
X127098500Y-63878705D01*
X127098500Y-62562495D01*
X127099790Y-62536237D01*
X127103648Y-62510231D01*
X127110035Y-62484729D01*
X127118892Y-62459976D01*
X127130133Y-62436210D01*
X127143648Y-62413661D01*
X127159309Y-62392544D01*
X127176965Y-62373065D01*
X127196444Y-62355409D01*
X127217561Y-62339748D01*
X127240110Y-62326233D01*
X127263876Y-62314992D01*
X127288629Y-62306135D01*
X127314131Y-62299748D01*
X127340137Y-62295890D01*
X127366395Y-62294600D01*
X128357605Y-62294600D01*
X128383863Y-62295890D01*
X128383863Y-62295890D01*
G37*
D14*
X127862000Y-63220600D03*
D13*
G36*
X128383863Y-64683490D02*
G01*
X128409869Y-64687348D01*
X128435371Y-64693735D01*
X128460124Y-64702592D01*
X128483890Y-64713833D01*
X128506439Y-64727348D01*
X128527556Y-64743009D01*
X128547035Y-64760665D01*
X128564691Y-64780144D01*
X128580352Y-64801261D01*
X128593867Y-64823810D01*
X128605108Y-64847576D01*
X128613965Y-64872329D01*
X128620352Y-64897831D01*
X128624210Y-64923837D01*
X128625500Y-64950095D01*
X128625500Y-66266305D01*
X128624210Y-66292563D01*
X128620352Y-66318569D01*
X128613965Y-66344071D01*
X128605108Y-66368824D01*
X128593867Y-66392590D01*
X128580352Y-66415139D01*
X128564691Y-66436256D01*
X128547035Y-66455735D01*
X128527556Y-66473391D01*
X128506439Y-66489052D01*
X128483890Y-66502567D01*
X128460124Y-66513808D01*
X128435371Y-66522665D01*
X128409869Y-66529052D01*
X128383863Y-66532910D01*
X128357605Y-66534200D01*
X127366395Y-66534200D01*
X127340137Y-66532910D01*
X127314131Y-66529052D01*
X127288629Y-66522665D01*
X127263876Y-66513808D01*
X127240110Y-66502567D01*
X127217561Y-66489052D01*
X127196444Y-66473391D01*
X127176965Y-66455735D01*
X127159309Y-66436256D01*
X127143648Y-66415139D01*
X127130133Y-66392590D01*
X127118892Y-66368824D01*
X127110035Y-66344071D01*
X127103648Y-66318569D01*
X127099790Y-66292563D01*
X127098500Y-66266305D01*
X127098500Y-64950095D01*
X127099790Y-64923837D01*
X127103648Y-64897831D01*
X127110035Y-64872329D01*
X127118892Y-64847576D01*
X127130133Y-64823810D01*
X127143648Y-64801261D01*
X127159309Y-64780144D01*
X127176965Y-64760665D01*
X127196444Y-64743009D01*
X127217561Y-64727348D01*
X127240110Y-64713833D01*
X127263876Y-64702592D01*
X127288629Y-64693735D01*
X127314131Y-64687348D01*
X127340137Y-64683490D01*
X127366395Y-64682200D01*
X128357605Y-64682200D01*
X128383863Y-64683490D01*
X128383863Y-64683490D01*
G37*
D14*
X127862000Y-65608200D03*
D13*
G36*
X131358863Y-64683490D02*
G01*
X131384869Y-64687348D01*
X131410371Y-64693735D01*
X131435124Y-64702592D01*
X131458890Y-64713833D01*
X131481439Y-64727348D01*
X131502556Y-64743009D01*
X131522035Y-64760665D01*
X131539691Y-64780144D01*
X131555352Y-64801261D01*
X131568867Y-64823810D01*
X131580108Y-64847576D01*
X131588965Y-64872329D01*
X131595352Y-64897831D01*
X131599210Y-64923837D01*
X131600500Y-64950095D01*
X131600500Y-66266305D01*
X131599210Y-66292563D01*
X131595352Y-66318569D01*
X131588965Y-66344071D01*
X131580108Y-66368824D01*
X131568867Y-66392590D01*
X131555352Y-66415139D01*
X131539691Y-66436256D01*
X131522035Y-66455735D01*
X131502556Y-66473391D01*
X131481439Y-66489052D01*
X131458890Y-66502567D01*
X131435124Y-66513808D01*
X131410371Y-66522665D01*
X131384869Y-66529052D01*
X131358863Y-66532910D01*
X131332605Y-66534200D01*
X130341395Y-66534200D01*
X130315137Y-66532910D01*
X130289131Y-66529052D01*
X130263629Y-66522665D01*
X130238876Y-66513808D01*
X130215110Y-66502567D01*
X130192561Y-66489052D01*
X130171444Y-66473391D01*
X130151965Y-66455735D01*
X130134309Y-66436256D01*
X130118648Y-66415139D01*
X130105133Y-66392590D01*
X130093892Y-66368824D01*
X130085035Y-66344071D01*
X130078648Y-66318569D01*
X130074790Y-66292563D01*
X130073500Y-66266305D01*
X130073500Y-64950095D01*
X130074790Y-64923837D01*
X130078648Y-64897831D01*
X130085035Y-64872329D01*
X130093892Y-64847576D01*
X130105133Y-64823810D01*
X130118648Y-64801261D01*
X130134309Y-64780144D01*
X130151965Y-64760665D01*
X130171444Y-64743009D01*
X130192561Y-64727348D01*
X130215110Y-64713833D01*
X130238876Y-64702592D01*
X130263629Y-64693735D01*
X130289131Y-64687348D01*
X130315137Y-64683490D01*
X130341395Y-64682200D01*
X131332605Y-64682200D01*
X131358863Y-64683490D01*
X131358863Y-64683490D01*
G37*
D14*
X130837000Y-65608200D03*
D13*
G36*
X128383863Y-59908290D02*
G01*
X128409869Y-59912148D01*
X128435371Y-59918535D01*
X128460124Y-59927392D01*
X128483890Y-59938633D01*
X128506439Y-59952148D01*
X128527556Y-59967809D01*
X128547035Y-59985465D01*
X128564691Y-60004944D01*
X128580352Y-60026061D01*
X128593867Y-60048610D01*
X128605108Y-60072376D01*
X128613965Y-60097129D01*
X128620352Y-60122631D01*
X128624210Y-60148637D01*
X128625500Y-60174895D01*
X128625500Y-61491105D01*
X128624210Y-61517363D01*
X128620352Y-61543369D01*
X128613965Y-61568871D01*
X128605108Y-61593624D01*
X128593867Y-61617390D01*
X128580352Y-61639939D01*
X128564691Y-61661056D01*
X128547035Y-61680535D01*
X128527556Y-61698191D01*
X128506439Y-61713852D01*
X128483890Y-61727367D01*
X128460124Y-61738608D01*
X128435371Y-61747465D01*
X128409869Y-61753852D01*
X128383863Y-61757710D01*
X128357605Y-61759000D01*
X127366395Y-61759000D01*
X127340137Y-61757710D01*
X127314131Y-61753852D01*
X127288629Y-61747465D01*
X127263876Y-61738608D01*
X127240110Y-61727367D01*
X127217561Y-61713852D01*
X127196444Y-61698191D01*
X127176965Y-61680535D01*
X127159309Y-61661056D01*
X127143648Y-61639939D01*
X127130133Y-61617390D01*
X127118892Y-61593624D01*
X127110035Y-61568871D01*
X127103648Y-61543369D01*
X127099790Y-61517363D01*
X127098500Y-61491105D01*
X127098500Y-60174895D01*
X127099790Y-60148637D01*
X127103648Y-60122631D01*
X127110035Y-60097129D01*
X127118892Y-60072376D01*
X127130133Y-60048610D01*
X127143648Y-60026061D01*
X127159309Y-60004944D01*
X127176965Y-59985465D01*
X127196444Y-59967809D01*
X127217561Y-59952148D01*
X127240110Y-59938633D01*
X127263876Y-59927392D01*
X127288629Y-59918535D01*
X127314131Y-59912148D01*
X127340137Y-59908290D01*
X127366395Y-59907000D01*
X128357605Y-59907000D01*
X128383863Y-59908290D01*
X128383863Y-59908290D01*
G37*
D14*
X127862000Y-60833000D03*
D13*
G36*
X131358863Y-59908290D02*
G01*
X131384869Y-59912148D01*
X131410371Y-59918535D01*
X131435124Y-59927392D01*
X131458890Y-59938633D01*
X131481439Y-59952148D01*
X131502556Y-59967809D01*
X131522035Y-59985465D01*
X131539691Y-60004944D01*
X131555352Y-60026061D01*
X131568867Y-60048610D01*
X131580108Y-60072376D01*
X131588965Y-60097129D01*
X131595352Y-60122631D01*
X131599210Y-60148637D01*
X131600500Y-60174895D01*
X131600500Y-61491105D01*
X131599210Y-61517363D01*
X131595352Y-61543369D01*
X131588965Y-61568871D01*
X131580108Y-61593624D01*
X131568867Y-61617390D01*
X131555352Y-61639939D01*
X131539691Y-61661056D01*
X131522035Y-61680535D01*
X131502556Y-61698191D01*
X131481439Y-61713852D01*
X131458890Y-61727367D01*
X131435124Y-61738608D01*
X131410371Y-61747465D01*
X131384869Y-61753852D01*
X131358863Y-61757710D01*
X131332605Y-61759000D01*
X130341395Y-61759000D01*
X130315137Y-61757710D01*
X130289131Y-61753852D01*
X130263629Y-61747465D01*
X130238876Y-61738608D01*
X130215110Y-61727367D01*
X130192561Y-61713852D01*
X130171444Y-61698191D01*
X130151965Y-61680535D01*
X130134309Y-61661056D01*
X130118648Y-61639939D01*
X130105133Y-61617390D01*
X130093892Y-61593624D01*
X130085035Y-61568871D01*
X130078648Y-61543369D01*
X130074790Y-61517363D01*
X130073500Y-61491105D01*
X130073500Y-60174895D01*
X130074790Y-60148637D01*
X130078648Y-60122631D01*
X130085035Y-60097129D01*
X130093892Y-60072376D01*
X130105133Y-60048610D01*
X130118648Y-60026061D01*
X130134309Y-60004944D01*
X130151965Y-59985465D01*
X130171444Y-59967809D01*
X130192561Y-59952148D01*
X130215110Y-59938633D01*
X130238876Y-59927392D01*
X130263629Y-59918535D01*
X130289131Y-59912148D01*
X130315137Y-59908290D01*
X130341395Y-59907000D01*
X131332605Y-59907000D01*
X131358863Y-59908290D01*
X131358863Y-59908290D01*
G37*
D14*
X130837000Y-60833000D03*
D20*
X139877800Y-102895400D03*
X139877800Y-100355400D03*
X139877800Y-97815400D03*
X139877800Y-95275400D03*
X139877800Y-92735400D03*
X139877800Y-90195400D03*
X139877800Y-87655400D03*
X139877800Y-85115400D03*
X139877800Y-82575400D03*
X139877800Y-80035400D03*
X139877800Y-77495400D03*
X139877800Y-74955400D03*
X139877800Y-72415400D03*
D21*
X139877800Y-69875400D03*
D20*
X124637800Y-102895400D03*
X124637800Y-100355400D03*
X124637800Y-97815400D03*
X124637800Y-95275400D03*
X124637800Y-92735400D03*
X124637800Y-90195400D03*
X124637800Y-87655400D03*
X124637800Y-85115400D03*
X124637800Y-82575400D03*
X124637800Y-80035400D03*
X124637800Y-77495400D03*
X124637800Y-74955400D03*
X124637800Y-72415400D03*
D21*
X124637800Y-69875400D03*
D20*
X136067800Y-91465400D03*
X136067800Y-94005400D03*
X136067800Y-96545400D03*
X136067800Y-99085400D03*
X138607800Y-91465400D03*
X138607800Y-94005400D03*
X138607800Y-96545400D03*
X138607800Y-99085400D03*
X133527800Y-99085400D03*
X130987800Y-99085400D03*
X136067800Y-101625400D03*
X133527800Y-101625400D03*
X130987800Y-101625400D03*
X128447800Y-101625400D03*
X128447800Y-99085400D03*
X128447800Y-96545400D03*
X128447800Y-94005400D03*
X128447800Y-91465400D03*
X125907800Y-99085400D03*
X125907800Y-96545400D03*
X125907800Y-94005400D03*
X125907800Y-91465400D03*
X125907800Y-88925400D03*
X136067800Y-86385400D03*
X133527800Y-86385400D03*
X128447800Y-86385400D03*
X130987800Y-86385400D03*
X138607800Y-88925400D03*
X136067800Y-88925400D03*
X128447800Y-88925400D03*
X130987800Y-88925400D03*
D21*
X133527800Y-88925400D03*
M02*
