G04 #@! TF.GenerationSoftware,KiCad,Pcbnew,(5.1.0)-1*
G04 #@! TF.CreationDate,2021-03-09T16:36:58+01:00*
G04 #@! TF.ProjectId,Atari TTP and OS,41746172-6920-4545-9450-20616e64204f,rev?*
G04 #@! TF.SameCoordinates,Original*
G04 #@! TF.FileFunction,Legend,Bot*
G04 #@! TF.FilePolarity,Positive*
%FSLAX46Y46*%
G04 Gerber Fmt 4.6, Leading zero omitted, Abs format (unit mm)*
G04 Created by KiCad (PCBNEW (5.1.0)-1) date 2021-03-09 16:36:58*
%MOMM*%
%LPD*%
G04 APERTURE LIST*
%ADD10O,1.802000X1.802000*%
%ADD11R,1.802000X1.802000*%
%ADD12C,1.302000*%
%ADD13R,1.302000X1.302000*%
%ADD14C,1.524400*%
%ADD15R,1.524400X1.524400*%
G04 APERTURE END LIST*
%LPC*%
D10*
X133070600Y-69621400D03*
D11*
X130530600Y-69621400D03*
D12*
X139192000Y-63320800D03*
D13*
X139192000Y-64820800D03*
D10*
X124485400Y-57632600D03*
X127025400Y-57632600D03*
X129565400Y-57632600D03*
X132105400Y-57632600D03*
X134645400Y-57632600D03*
D11*
X137185400Y-57632600D03*
D14*
X139877800Y-102895400D03*
X139877800Y-100355400D03*
X139877800Y-97815400D03*
X139877800Y-95275400D03*
X139877800Y-92735400D03*
X139877800Y-90195400D03*
X139877800Y-87655400D03*
X139877800Y-85115400D03*
X139877800Y-82575400D03*
X139877800Y-80035400D03*
X139877800Y-77495400D03*
X139877800Y-74955400D03*
X139877800Y-72415400D03*
D15*
X139877800Y-69875400D03*
D14*
X124637800Y-102895400D03*
X124637800Y-100355400D03*
X124637800Y-97815400D03*
X124637800Y-95275400D03*
X124637800Y-92735400D03*
X124637800Y-90195400D03*
X124637800Y-87655400D03*
X124637800Y-85115400D03*
X124637800Y-82575400D03*
X124637800Y-80035400D03*
X124637800Y-77495400D03*
X124637800Y-74955400D03*
X124637800Y-72415400D03*
D15*
X124637800Y-69875400D03*
D14*
X136067800Y-91465400D03*
X136067800Y-94005400D03*
X136067800Y-96545400D03*
X136067800Y-99085400D03*
X138607800Y-91465400D03*
X138607800Y-94005400D03*
X138607800Y-96545400D03*
X138607800Y-99085400D03*
X133527800Y-99085400D03*
X130987800Y-99085400D03*
X136067800Y-101625400D03*
X133527800Y-101625400D03*
X130987800Y-101625400D03*
X128447800Y-101625400D03*
X128447800Y-99085400D03*
X128447800Y-96545400D03*
X128447800Y-94005400D03*
X128447800Y-91465400D03*
X125907800Y-99085400D03*
X125907800Y-96545400D03*
X125907800Y-94005400D03*
X125907800Y-91465400D03*
X125907800Y-88925400D03*
X136067800Y-86385400D03*
X133527800Y-86385400D03*
X128447800Y-86385400D03*
X130987800Y-86385400D03*
X138607800Y-88925400D03*
X136067800Y-88925400D03*
X128447800Y-88925400D03*
X130987800Y-88925400D03*
D15*
X133527800Y-88925400D03*
M02*
