M48
; DRILL file {KiCad (5.1.0)-1} date 18.03.2021 21:23:56
; FORMAT={-:-/ absolute / inch / decimal}
; #@! TF.CreationDate,2021-03-18T21:23:56+01:00
; #@! TF.GenerationSoftware,Kicad,Pcbnew,(5.1.0)-1
; #@! TF.FileFunction,Plated,1,2,PTH
FMAT,2
INCH
T1C0.0157
T2C0.0197
T3C0.0236
T4C0.0315
T5C0.0394
%
G90
G05
T1
X4.902Y-2.508
X4.9275Y-2.5335
T2
X4.88Y-2.13
X4.946Y-2.366
X5.032Y-3.215
X5.04Y-2.13
X5.086Y-3.282
X5.151Y-3.283
X5.16Y-3.69
X5.16Y-3.8
X5.179Y-2.965
X5.179Y-3.165
X5.182Y-3.065
X5.2Y-2.13
X5.239Y-2.841
X5.25Y-2.38
X5.25Y-3.8
X5.258Y-3.114
X5.355Y-3.325
X5.36Y-2.13
X5.36Y-2.73
X5.44Y-2.65
X5.53Y-2.13
X5.53Y-2.26
X5.551Y-3.001
T3
X5.48Y-2.4929
X5.48Y-2.552
T4
X4.957Y-3.501
X4.957Y-3.601
X4.957Y-3.701
X4.957Y-3.801
X4.957Y-3.901
X5.057Y-3.401
X5.057Y-3.501
X5.057Y-3.601
X5.057Y-3.701
X5.057Y-3.801
X5.057Y-3.901
X5.057Y-4.001
X5.157Y-3.401
X5.157Y-3.501
X5.157Y-3.901
X5.157Y-4.001
X5.257Y-3.401
X5.257Y-3.501
X5.257Y-3.901
X5.257Y-4.001
X5.357Y-3.401
X5.357Y-3.501
X5.357Y-3.601
X5.357Y-3.701
X5.357Y-3.801
X5.357Y-3.901
X5.357Y-4.001
X5.457Y-3.501
X5.457Y-3.601
X5.457Y-3.701
X5.457Y-3.801
X5.457Y-3.901
X5.507Y-2.751
X5.507Y-2.851
X5.507Y-2.951
X5.507Y-3.051
X5.507Y-3.151
X5.507Y-3.251
X5.507Y-3.351
X5.507Y-3.451
X5.507Y-3.551
X5.507Y-3.651
X5.507Y-3.751
X5.507Y-3.851
X5.507Y-3.951
X5.507Y-4.051
X4.907Y-2.751
X4.907Y-2.851
X4.907Y-2.951
X4.907Y-3.051
X4.907Y-3.151
X4.907Y-3.251
X4.907Y-3.351
X4.907Y-3.451
X4.907Y-3.551
X4.907Y-3.651
X4.907Y-3.751
X4.907Y-3.851
X4.907Y-3.951
X4.907Y-4.051
T5
X4.901Y-2.269
X5.001Y-2.269
X5.101Y-2.269
X5.201Y-2.269
X5.301Y-2.269
X5.401Y-2.269
X5.139Y-2.741
X5.239Y-2.741
T0
M30
