G04 #@! TF.GenerationSoftware,KiCad,Pcbnew,(5.1.0)-1*
G04 #@! TF.CreationDate,2021-03-09T16:36:58+01:00*
G04 #@! TF.ProjectId,Atari TTP and OS,41746172-6920-4545-9450-20616e64204f,rev?*
G04 #@! TF.SameCoordinates,Original*
G04 #@! TF.FileFunction,Copper,L1,Top*
G04 #@! TF.FilePolarity,Positive*
%FSLAX46Y46*%
G04 Gerber Fmt 4.6, Leading zero omitted, Abs format (unit mm)*
G04 Created by KiCad (PCBNEW (5.1.0)-1) date 2021-03-09 16:36:58*
%MOMM*%
%LPD*%
G04 APERTURE LIST*
%ADD10R,1.500000X0.600000*%
%ADD11C,0.100000*%
%ADD12C,1.425000*%
%ADD13O,1.700000X1.700000*%
%ADD14R,1.700000X1.700000*%
%ADD15C,1.200000*%
%ADD16R,1.200000X1.200000*%
%ADD17R,0.400000X1.100000*%
%ADD18C,1.422400*%
%ADD19R,1.422400X1.422400*%
%ADD20C,0.900000*%
%ADD21C,0.800000*%
%ADD22C,0.406400*%
%ADD23C,0.609600*%
%ADD24C,0.812800*%
%ADD25C,0.304800*%
%ADD26C,0.508000*%
%ADD27C,0.254000*%
G04 APERTURE END LIST*
D10*
X135186400Y-72771000D03*
X135186400Y-74041000D03*
X135186400Y-75311000D03*
X135186400Y-76581000D03*
X135186400Y-77851000D03*
X135186400Y-79121000D03*
X135186400Y-80391000D03*
X135186400Y-81661000D03*
X129786400Y-81661000D03*
X129786400Y-80391000D03*
X129786400Y-79121000D03*
X129786400Y-77851000D03*
X129786400Y-76581000D03*
X129786400Y-75311000D03*
X129786400Y-74041000D03*
X129786400Y-72771000D03*
D11*
G36*
X136196604Y-62063204D02*
G01*
X136220873Y-62066804D01*
X136244671Y-62072765D01*
X136267771Y-62081030D01*
X136289949Y-62091520D01*
X136310993Y-62104133D01*
X136330698Y-62118747D01*
X136348877Y-62135223D01*
X136365353Y-62153402D01*
X136379967Y-62173107D01*
X136392580Y-62194151D01*
X136403070Y-62216329D01*
X136411335Y-62239429D01*
X136417296Y-62263227D01*
X136420896Y-62287496D01*
X136422100Y-62312000D01*
X136422100Y-63237000D01*
X136420896Y-63261504D01*
X136417296Y-63285773D01*
X136411335Y-63309571D01*
X136403070Y-63332671D01*
X136392580Y-63354849D01*
X136379967Y-63375893D01*
X136365353Y-63395598D01*
X136348877Y-63413777D01*
X136330698Y-63430253D01*
X136310993Y-63444867D01*
X136289949Y-63457480D01*
X136267771Y-63467970D01*
X136244671Y-63476235D01*
X136220873Y-63482196D01*
X136196604Y-63485796D01*
X136172100Y-63487000D01*
X134922100Y-63487000D01*
X134897596Y-63485796D01*
X134873327Y-63482196D01*
X134849529Y-63476235D01*
X134826429Y-63467970D01*
X134804251Y-63457480D01*
X134783207Y-63444867D01*
X134763502Y-63430253D01*
X134745323Y-63413777D01*
X134728847Y-63395598D01*
X134714233Y-63375893D01*
X134701620Y-63354849D01*
X134691130Y-63332671D01*
X134682865Y-63309571D01*
X134676904Y-63285773D01*
X134673304Y-63261504D01*
X134672100Y-63237000D01*
X134672100Y-62312000D01*
X134673304Y-62287496D01*
X134676904Y-62263227D01*
X134682865Y-62239429D01*
X134691130Y-62216329D01*
X134701620Y-62194151D01*
X134714233Y-62173107D01*
X134728847Y-62153402D01*
X134745323Y-62135223D01*
X134763502Y-62118747D01*
X134783207Y-62104133D01*
X134804251Y-62091520D01*
X134826429Y-62081030D01*
X134849529Y-62072765D01*
X134873327Y-62066804D01*
X134897596Y-62063204D01*
X134922100Y-62062000D01*
X136172100Y-62062000D01*
X136196604Y-62063204D01*
X136196604Y-62063204D01*
G37*
D12*
X135547100Y-62774500D03*
D11*
G36*
X136196604Y-65038204D02*
G01*
X136220873Y-65041804D01*
X136244671Y-65047765D01*
X136267771Y-65056030D01*
X136289949Y-65066520D01*
X136310993Y-65079133D01*
X136330698Y-65093747D01*
X136348877Y-65110223D01*
X136365353Y-65128402D01*
X136379967Y-65148107D01*
X136392580Y-65169151D01*
X136403070Y-65191329D01*
X136411335Y-65214429D01*
X136417296Y-65238227D01*
X136420896Y-65262496D01*
X136422100Y-65287000D01*
X136422100Y-66212000D01*
X136420896Y-66236504D01*
X136417296Y-66260773D01*
X136411335Y-66284571D01*
X136403070Y-66307671D01*
X136392580Y-66329849D01*
X136379967Y-66350893D01*
X136365353Y-66370598D01*
X136348877Y-66388777D01*
X136330698Y-66405253D01*
X136310993Y-66419867D01*
X136289949Y-66432480D01*
X136267771Y-66442970D01*
X136244671Y-66451235D01*
X136220873Y-66457196D01*
X136196604Y-66460796D01*
X136172100Y-66462000D01*
X134922100Y-66462000D01*
X134897596Y-66460796D01*
X134873327Y-66457196D01*
X134849529Y-66451235D01*
X134826429Y-66442970D01*
X134804251Y-66432480D01*
X134783207Y-66419867D01*
X134763502Y-66405253D01*
X134745323Y-66388777D01*
X134728847Y-66370598D01*
X134714233Y-66350893D01*
X134701620Y-66329849D01*
X134691130Y-66307671D01*
X134682865Y-66284571D01*
X134676904Y-66260773D01*
X134673304Y-66236504D01*
X134672100Y-66212000D01*
X134672100Y-65287000D01*
X134673304Y-65262496D01*
X134676904Y-65238227D01*
X134682865Y-65214429D01*
X134691130Y-65191329D01*
X134701620Y-65169151D01*
X134714233Y-65148107D01*
X134728847Y-65128402D01*
X134745323Y-65110223D01*
X134763502Y-65093747D01*
X134783207Y-65079133D01*
X134804251Y-65066520D01*
X134826429Y-65056030D01*
X134849529Y-65047765D01*
X134873327Y-65041804D01*
X134897596Y-65038204D01*
X134922100Y-65037000D01*
X136172100Y-65037000D01*
X136196604Y-65038204D01*
X136196604Y-65038204D01*
G37*
D12*
X135547100Y-65749500D03*
D13*
X133070600Y-69621400D03*
D14*
X130530600Y-69621400D03*
D15*
X139192000Y-63320800D03*
D16*
X139192000Y-64820800D03*
D17*
X123662800Y-61629400D03*
X124312800Y-61629400D03*
X124962800Y-61629400D03*
X125612800Y-61629400D03*
X125612800Y-65929400D03*
X124962800Y-65929400D03*
X124312800Y-65929400D03*
X123662800Y-65929400D03*
D13*
X124485400Y-57632600D03*
X127025400Y-57632600D03*
X129565400Y-57632600D03*
X132105400Y-57632600D03*
X134645400Y-57632600D03*
D14*
X137185400Y-57632600D03*
D11*
G36*
X133758204Y-65038204D02*
G01*
X133782473Y-65041804D01*
X133806271Y-65047765D01*
X133829371Y-65056030D01*
X133851549Y-65066520D01*
X133872593Y-65079133D01*
X133892298Y-65093747D01*
X133910477Y-65110223D01*
X133926953Y-65128402D01*
X133941567Y-65148107D01*
X133954180Y-65169151D01*
X133964670Y-65191329D01*
X133972935Y-65214429D01*
X133978896Y-65238227D01*
X133982496Y-65262496D01*
X133983700Y-65287000D01*
X133983700Y-66212000D01*
X133982496Y-66236504D01*
X133978896Y-66260773D01*
X133972935Y-66284571D01*
X133964670Y-66307671D01*
X133954180Y-66329849D01*
X133941567Y-66350893D01*
X133926953Y-66370598D01*
X133910477Y-66388777D01*
X133892298Y-66405253D01*
X133872593Y-66419867D01*
X133851549Y-66432480D01*
X133829371Y-66442970D01*
X133806271Y-66451235D01*
X133782473Y-66457196D01*
X133758204Y-66460796D01*
X133733700Y-66462000D01*
X132483700Y-66462000D01*
X132459196Y-66460796D01*
X132434927Y-66457196D01*
X132411129Y-66451235D01*
X132388029Y-66442970D01*
X132365851Y-66432480D01*
X132344807Y-66419867D01*
X132325102Y-66405253D01*
X132306923Y-66388777D01*
X132290447Y-66370598D01*
X132275833Y-66350893D01*
X132263220Y-66329849D01*
X132252730Y-66307671D01*
X132244465Y-66284571D01*
X132238504Y-66260773D01*
X132234904Y-66236504D01*
X132233700Y-66212000D01*
X132233700Y-65287000D01*
X132234904Y-65262496D01*
X132238504Y-65238227D01*
X132244465Y-65214429D01*
X132252730Y-65191329D01*
X132263220Y-65169151D01*
X132275833Y-65148107D01*
X132290447Y-65128402D01*
X132306923Y-65110223D01*
X132325102Y-65093747D01*
X132344807Y-65079133D01*
X132365851Y-65066520D01*
X132388029Y-65056030D01*
X132411129Y-65047765D01*
X132434927Y-65041804D01*
X132459196Y-65038204D01*
X132483700Y-65037000D01*
X133733700Y-65037000D01*
X133758204Y-65038204D01*
X133758204Y-65038204D01*
G37*
D12*
X133108700Y-65749500D03*
D11*
G36*
X133758204Y-62063204D02*
G01*
X133782473Y-62066804D01*
X133806271Y-62072765D01*
X133829371Y-62081030D01*
X133851549Y-62091520D01*
X133872593Y-62104133D01*
X133892298Y-62118747D01*
X133910477Y-62135223D01*
X133926953Y-62153402D01*
X133941567Y-62173107D01*
X133954180Y-62194151D01*
X133964670Y-62216329D01*
X133972935Y-62239429D01*
X133978896Y-62263227D01*
X133982496Y-62287496D01*
X133983700Y-62312000D01*
X133983700Y-63237000D01*
X133982496Y-63261504D01*
X133978896Y-63285773D01*
X133972935Y-63309571D01*
X133964670Y-63332671D01*
X133954180Y-63354849D01*
X133941567Y-63375893D01*
X133926953Y-63395598D01*
X133910477Y-63413777D01*
X133892298Y-63430253D01*
X133872593Y-63444867D01*
X133851549Y-63457480D01*
X133829371Y-63467970D01*
X133806271Y-63476235D01*
X133782473Y-63482196D01*
X133758204Y-63485796D01*
X133733700Y-63487000D01*
X132483700Y-63487000D01*
X132459196Y-63485796D01*
X132434927Y-63482196D01*
X132411129Y-63476235D01*
X132388029Y-63467970D01*
X132365851Y-63457480D01*
X132344807Y-63444867D01*
X132325102Y-63430253D01*
X132306923Y-63413777D01*
X132290447Y-63395598D01*
X132275833Y-63375893D01*
X132263220Y-63354849D01*
X132252730Y-63332671D01*
X132244465Y-63309571D01*
X132238504Y-63285773D01*
X132234904Y-63261504D01*
X132233700Y-63237000D01*
X132233700Y-62312000D01*
X132234904Y-62287496D01*
X132238504Y-62263227D01*
X132244465Y-62239429D01*
X132252730Y-62216329D01*
X132263220Y-62194151D01*
X132275833Y-62173107D01*
X132290447Y-62153402D01*
X132306923Y-62135223D01*
X132325102Y-62118747D01*
X132344807Y-62104133D01*
X132365851Y-62091520D01*
X132388029Y-62081030D01*
X132411129Y-62072765D01*
X132434927Y-62066804D01*
X132459196Y-62063204D01*
X132483700Y-62062000D01*
X133733700Y-62062000D01*
X133758204Y-62063204D01*
X133758204Y-62063204D01*
G37*
D12*
X133108700Y-62774500D03*
D11*
G36*
X131324004Y-62346804D02*
G01*
X131348273Y-62350404D01*
X131372071Y-62356365D01*
X131395171Y-62364630D01*
X131417349Y-62375120D01*
X131438393Y-62387733D01*
X131458098Y-62402347D01*
X131476277Y-62418823D01*
X131492753Y-62437002D01*
X131507367Y-62456707D01*
X131519980Y-62477751D01*
X131530470Y-62499929D01*
X131538735Y-62523029D01*
X131544696Y-62546827D01*
X131548296Y-62571096D01*
X131549500Y-62595600D01*
X131549500Y-63845600D01*
X131548296Y-63870104D01*
X131544696Y-63894373D01*
X131538735Y-63918171D01*
X131530470Y-63941271D01*
X131519980Y-63963449D01*
X131507367Y-63984493D01*
X131492753Y-64004198D01*
X131476277Y-64022377D01*
X131458098Y-64038853D01*
X131438393Y-64053467D01*
X131417349Y-64066080D01*
X131395171Y-64076570D01*
X131372071Y-64084835D01*
X131348273Y-64090796D01*
X131324004Y-64094396D01*
X131299500Y-64095600D01*
X130374500Y-64095600D01*
X130349996Y-64094396D01*
X130325727Y-64090796D01*
X130301929Y-64084835D01*
X130278829Y-64076570D01*
X130256651Y-64066080D01*
X130235607Y-64053467D01*
X130215902Y-64038853D01*
X130197723Y-64022377D01*
X130181247Y-64004198D01*
X130166633Y-63984493D01*
X130154020Y-63963449D01*
X130143530Y-63941271D01*
X130135265Y-63918171D01*
X130129304Y-63894373D01*
X130125704Y-63870104D01*
X130124500Y-63845600D01*
X130124500Y-62595600D01*
X130125704Y-62571096D01*
X130129304Y-62546827D01*
X130135265Y-62523029D01*
X130143530Y-62499929D01*
X130154020Y-62477751D01*
X130166633Y-62456707D01*
X130181247Y-62437002D01*
X130197723Y-62418823D01*
X130215902Y-62402347D01*
X130235607Y-62387733D01*
X130256651Y-62375120D01*
X130278829Y-62364630D01*
X130301929Y-62356365D01*
X130325727Y-62350404D01*
X130349996Y-62346804D01*
X130374500Y-62345600D01*
X131299500Y-62345600D01*
X131324004Y-62346804D01*
X131324004Y-62346804D01*
G37*
D12*
X130837000Y-63220600D03*
D11*
G36*
X128349004Y-62346804D02*
G01*
X128373273Y-62350404D01*
X128397071Y-62356365D01*
X128420171Y-62364630D01*
X128442349Y-62375120D01*
X128463393Y-62387733D01*
X128483098Y-62402347D01*
X128501277Y-62418823D01*
X128517753Y-62437002D01*
X128532367Y-62456707D01*
X128544980Y-62477751D01*
X128555470Y-62499929D01*
X128563735Y-62523029D01*
X128569696Y-62546827D01*
X128573296Y-62571096D01*
X128574500Y-62595600D01*
X128574500Y-63845600D01*
X128573296Y-63870104D01*
X128569696Y-63894373D01*
X128563735Y-63918171D01*
X128555470Y-63941271D01*
X128544980Y-63963449D01*
X128532367Y-63984493D01*
X128517753Y-64004198D01*
X128501277Y-64022377D01*
X128483098Y-64038853D01*
X128463393Y-64053467D01*
X128442349Y-64066080D01*
X128420171Y-64076570D01*
X128397071Y-64084835D01*
X128373273Y-64090796D01*
X128349004Y-64094396D01*
X128324500Y-64095600D01*
X127399500Y-64095600D01*
X127374996Y-64094396D01*
X127350727Y-64090796D01*
X127326929Y-64084835D01*
X127303829Y-64076570D01*
X127281651Y-64066080D01*
X127260607Y-64053467D01*
X127240902Y-64038853D01*
X127222723Y-64022377D01*
X127206247Y-64004198D01*
X127191633Y-63984493D01*
X127179020Y-63963449D01*
X127168530Y-63941271D01*
X127160265Y-63918171D01*
X127154304Y-63894373D01*
X127150704Y-63870104D01*
X127149500Y-63845600D01*
X127149500Y-62595600D01*
X127150704Y-62571096D01*
X127154304Y-62546827D01*
X127160265Y-62523029D01*
X127168530Y-62499929D01*
X127179020Y-62477751D01*
X127191633Y-62456707D01*
X127206247Y-62437002D01*
X127222723Y-62418823D01*
X127240902Y-62402347D01*
X127260607Y-62387733D01*
X127281651Y-62375120D01*
X127303829Y-62364630D01*
X127326929Y-62356365D01*
X127350727Y-62350404D01*
X127374996Y-62346804D01*
X127399500Y-62345600D01*
X128324500Y-62345600D01*
X128349004Y-62346804D01*
X128349004Y-62346804D01*
G37*
D12*
X127862000Y-63220600D03*
D11*
G36*
X128349004Y-64734404D02*
G01*
X128373273Y-64738004D01*
X128397071Y-64743965D01*
X128420171Y-64752230D01*
X128442349Y-64762720D01*
X128463393Y-64775333D01*
X128483098Y-64789947D01*
X128501277Y-64806423D01*
X128517753Y-64824602D01*
X128532367Y-64844307D01*
X128544980Y-64865351D01*
X128555470Y-64887529D01*
X128563735Y-64910629D01*
X128569696Y-64934427D01*
X128573296Y-64958696D01*
X128574500Y-64983200D01*
X128574500Y-66233200D01*
X128573296Y-66257704D01*
X128569696Y-66281973D01*
X128563735Y-66305771D01*
X128555470Y-66328871D01*
X128544980Y-66351049D01*
X128532367Y-66372093D01*
X128517753Y-66391798D01*
X128501277Y-66409977D01*
X128483098Y-66426453D01*
X128463393Y-66441067D01*
X128442349Y-66453680D01*
X128420171Y-66464170D01*
X128397071Y-66472435D01*
X128373273Y-66478396D01*
X128349004Y-66481996D01*
X128324500Y-66483200D01*
X127399500Y-66483200D01*
X127374996Y-66481996D01*
X127350727Y-66478396D01*
X127326929Y-66472435D01*
X127303829Y-66464170D01*
X127281651Y-66453680D01*
X127260607Y-66441067D01*
X127240902Y-66426453D01*
X127222723Y-66409977D01*
X127206247Y-66391798D01*
X127191633Y-66372093D01*
X127179020Y-66351049D01*
X127168530Y-66328871D01*
X127160265Y-66305771D01*
X127154304Y-66281973D01*
X127150704Y-66257704D01*
X127149500Y-66233200D01*
X127149500Y-64983200D01*
X127150704Y-64958696D01*
X127154304Y-64934427D01*
X127160265Y-64910629D01*
X127168530Y-64887529D01*
X127179020Y-64865351D01*
X127191633Y-64844307D01*
X127206247Y-64824602D01*
X127222723Y-64806423D01*
X127240902Y-64789947D01*
X127260607Y-64775333D01*
X127281651Y-64762720D01*
X127303829Y-64752230D01*
X127326929Y-64743965D01*
X127350727Y-64738004D01*
X127374996Y-64734404D01*
X127399500Y-64733200D01*
X128324500Y-64733200D01*
X128349004Y-64734404D01*
X128349004Y-64734404D01*
G37*
D12*
X127862000Y-65608200D03*
D11*
G36*
X131324004Y-64734404D02*
G01*
X131348273Y-64738004D01*
X131372071Y-64743965D01*
X131395171Y-64752230D01*
X131417349Y-64762720D01*
X131438393Y-64775333D01*
X131458098Y-64789947D01*
X131476277Y-64806423D01*
X131492753Y-64824602D01*
X131507367Y-64844307D01*
X131519980Y-64865351D01*
X131530470Y-64887529D01*
X131538735Y-64910629D01*
X131544696Y-64934427D01*
X131548296Y-64958696D01*
X131549500Y-64983200D01*
X131549500Y-66233200D01*
X131548296Y-66257704D01*
X131544696Y-66281973D01*
X131538735Y-66305771D01*
X131530470Y-66328871D01*
X131519980Y-66351049D01*
X131507367Y-66372093D01*
X131492753Y-66391798D01*
X131476277Y-66409977D01*
X131458098Y-66426453D01*
X131438393Y-66441067D01*
X131417349Y-66453680D01*
X131395171Y-66464170D01*
X131372071Y-66472435D01*
X131348273Y-66478396D01*
X131324004Y-66481996D01*
X131299500Y-66483200D01*
X130374500Y-66483200D01*
X130349996Y-66481996D01*
X130325727Y-66478396D01*
X130301929Y-66472435D01*
X130278829Y-66464170D01*
X130256651Y-66453680D01*
X130235607Y-66441067D01*
X130215902Y-66426453D01*
X130197723Y-66409977D01*
X130181247Y-66391798D01*
X130166633Y-66372093D01*
X130154020Y-66351049D01*
X130143530Y-66328871D01*
X130135265Y-66305771D01*
X130129304Y-66281973D01*
X130125704Y-66257704D01*
X130124500Y-66233200D01*
X130124500Y-64983200D01*
X130125704Y-64958696D01*
X130129304Y-64934427D01*
X130135265Y-64910629D01*
X130143530Y-64887529D01*
X130154020Y-64865351D01*
X130166633Y-64844307D01*
X130181247Y-64824602D01*
X130197723Y-64806423D01*
X130215902Y-64789947D01*
X130235607Y-64775333D01*
X130256651Y-64762720D01*
X130278829Y-64752230D01*
X130301929Y-64743965D01*
X130325727Y-64738004D01*
X130349996Y-64734404D01*
X130374500Y-64733200D01*
X131299500Y-64733200D01*
X131324004Y-64734404D01*
X131324004Y-64734404D01*
G37*
D12*
X130837000Y-65608200D03*
D11*
G36*
X128349004Y-59959204D02*
G01*
X128373273Y-59962804D01*
X128397071Y-59968765D01*
X128420171Y-59977030D01*
X128442349Y-59987520D01*
X128463393Y-60000133D01*
X128483098Y-60014747D01*
X128501277Y-60031223D01*
X128517753Y-60049402D01*
X128532367Y-60069107D01*
X128544980Y-60090151D01*
X128555470Y-60112329D01*
X128563735Y-60135429D01*
X128569696Y-60159227D01*
X128573296Y-60183496D01*
X128574500Y-60208000D01*
X128574500Y-61458000D01*
X128573296Y-61482504D01*
X128569696Y-61506773D01*
X128563735Y-61530571D01*
X128555470Y-61553671D01*
X128544980Y-61575849D01*
X128532367Y-61596893D01*
X128517753Y-61616598D01*
X128501277Y-61634777D01*
X128483098Y-61651253D01*
X128463393Y-61665867D01*
X128442349Y-61678480D01*
X128420171Y-61688970D01*
X128397071Y-61697235D01*
X128373273Y-61703196D01*
X128349004Y-61706796D01*
X128324500Y-61708000D01*
X127399500Y-61708000D01*
X127374996Y-61706796D01*
X127350727Y-61703196D01*
X127326929Y-61697235D01*
X127303829Y-61688970D01*
X127281651Y-61678480D01*
X127260607Y-61665867D01*
X127240902Y-61651253D01*
X127222723Y-61634777D01*
X127206247Y-61616598D01*
X127191633Y-61596893D01*
X127179020Y-61575849D01*
X127168530Y-61553671D01*
X127160265Y-61530571D01*
X127154304Y-61506773D01*
X127150704Y-61482504D01*
X127149500Y-61458000D01*
X127149500Y-60208000D01*
X127150704Y-60183496D01*
X127154304Y-60159227D01*
X127160265Y-60135429D01*
X127168530Y-60112329D01*
X127179020Y-60090151D01*
X127191633Y-60069107D01*
X127206247Y-60049402D01*
X127222723Y-60031223D01*
X127240902Y-60014747D01*
X127260607Y-60000133D01*
X127281651Y-59987520D01*
X127303829Y-59977030D01*
X127326929Y-59968765D01*
X127350727Y-59962804D01*
X127374996Y-59959204D01*
X127399500Y-59958000D01*
X128324500Y-59958000D01*
X128349004Y-59959204D01*
X128349004Y-59959204D01*
G37*
D12*
X127862000Y-60833000D03*
D11*
G36*
X131324004Y-59959204D02*
G01*
X131348273Y-59962804D01*
X131372071Y-59968765D01*
X131395171Y-59977030D01*
X131417349Y-59987520D01*
X131438393Y-60000133D01*
X131458098Y-60014747D01*
X131476277Y-60031223D01*
X131492753Y-60049402D01*
X131507367Y-60069107D01*
X131519980Y-60090151D01*
X131530470Y-60112329D01*
X131538735Y-60135429D01*
X131544696Y-60159227D01*
X131548296Y-60183496D01*
X131549500Y-60208000D01*
X131549500Y-61458000D01*
X131548296Y-61482504D01*
X131544696Y-61506773D01*
X131538735Y-61530571D01*
X131530470Y-61553671D01*
X131519980Y-61575849D01*
X131507367Y-61596893D01*
X131492753Y-61616598D01*
X131476277Y-61634777D01*
X131458098Y-61651253D01*
X131438393Y-61665867D01*
X131417349Y-61678480D01*
X131395171Y-61688970D01*
X131372071Y-61697235D01*
X131348273Y-61703196D01*
X131324004Y-61706796D01*
X131299500Y-61708000D01*
X130374500Y-61708000D01*
X130349996Y-61706796D01*
X130325727Y-61703196D01*
X130301929Y-61697235D01*
X130278829Y-61688970D01*
X130256651Y-61678480D01*
X130235607Y-61665867D01*
X130215902Y-61651253D01*
X130197723Y-61634777D01*
X130181247Y-61616598D01*
X130166633Y-61596893D01*
X130154020Y-61575849D01*
X130143530Y-61553671D01*
X130135265Y-61530571D01*
X130129304Y-61506773D01*
X130125704Y-61482504D01*
X130124500Y-61458000D01*
X130124500Y-60208000D01*
X130125704Y-60183496D01*
X130129304Y-60159227D01*
X130135265Y-60135429D01*
X130143530Y-60112329D01*
X130154020Y-60090151D01*
X130166633Y-60069107D01*
X130181247Y-60049402D01*
X130197723Y-60031223D01*
X130215902Y-60014747D01*
X130235607Y-60000133D01*
X130256651Y-59987520D01*
X130278829Y-59977030D01*
X130301929Y-59968765D01*
X130325727Y-59962804D01*
X130349996Y-59959204D01*
X130374500Y-59958000D01*
X131299500Y-59958000D01*
X131324004Y-59959204D01*
X131324004Y-59959204D01*
G37*
D12*
X130837000Y-60833000D03*
D18*
X139877800Y-102895400D03*
X139877800Y-100355400D03*
X139877800Y-97815400D03*
X139877800Y-95275400D03*
X139877800Y-92735400D03*
X139877800Y-90195400D03*
X139877800Y-87655400D03*
X139877800Y-85115400D03*
X139877800Y-82575400D03*
X139877800Y-80035400D03*
X139877800Y-77495400D03*
X139877800Y-74955400D03*
X139877800Y-72415400D03*
D19*
X139877800Y-69875400D03*
D18*
X124637800Y-102895400D03*
X124637800Y-100355400D03*
X124637800Y-97815400D03*
X124637800Y-95275400D03*
X124637800Y-92735400D03*
X124637800Y-90195400D03*
X124637800Y-87655400D03*
X124637800Y-85115400D03*
X124637800Y-82575400D03*
X124637800Y-80035400D03*
X124637800Y-77495400D03*
X124637800Y-74955400D03*
X124637800Y-72415400D03*
D19*
X124637800Y-69875400D03*
D18*
X136067800Y-91465400D03*
X136067800Y-94005400D03*
X136067800Y-96545400D03*
X136067800Y-99085400D03*
X138607800Y-91465400D03*
X138607800Y-94005400D03*
X138607800Y-96545400D03*
X138607800Y-99085400D03*
X133527800Y-99085400D03*
X130987800Y-99085400D03*
X136067800Y-101625400D03*
X133527800Y-101625400D03*
X130987800Y-101625400D03*
X128447800Y-101625400D03*
X128447800Y-99085400D03*
X128447800Y-96545400D03*
X128447800Y-94005400D03*
X128447800Y-91465400D03*
X125907800Y-99085400D03*
X125907800Y-96545400D03*
X125907800Y-94005400D03*
X125907800Y-91465400D03*
X125907800Y-88925400D03*
X136067800Y-86385400D03*
X133527800Y-86385400D03*
X128447800Y-86385400D03*
X130987800Y-86385400D03*
X138607800Y-88925400D03*
X136067800Y-88925400D03*
X128447800Y-88925400D03*
X130987800Y-88925400D03*
D19*
X133527800Y-88925400D03*
D20*
X131064000Y-93726000D03*
X131064000Y-96520000D03*
X133350000Y-96520000D03*
D21*
X124510800Y-63703200D03*
X125158500Y-64350900D03*
D20*
X123952000Y-54102000D03*
X128016000Y-54102000D03*
X132080000Y-54102000D03*
X136144000Y-54102000D03*
X140462000Y-54102000D03*
X140462000Y-57404000D03*
X133350000Y-60452000D03*
X138176000Y-67310000D03*
X136144000Y-69342000D03*
X133070600Y-72161400D03*
X129184400Y-83362800D03*
X130835400Y-83388200D03*
X127812800Y-81661000D03*
X136017002Y-84455000D03*
X125628400Y-60096400D03*
X131546600Y-75311000D03*
X133553200Y-79095600D03*
X131622800Y-77851000D03*
X140995400Y-76225400D03*
X131546600Y-80391000D03*
D22*
X123662800Y-61629400D02*
X123662800Y-62855200D01*
X123662800Y-62855200D02*
X124110801Y-63303201D01*
X124110801Y-63303201D02*
X124510800Y-63703200D01*
X130837000Y-63220600D02*
X130837000Y-65608200D01*
X132662600Y-63220600D02*
X133108700Y-62774500D01*
X130837000Y-63220600D02*
X132662600Y-63220600D01*
X125158500Y-64350900D02*
X123662800Y-62855200D01*
D23*
X137744200Y-70916800D02*
X138785600Y-69875400D01*
X137668000Y-72771000D02*
X135186400Y-72771000D01*
X137744200Y-72694800D02*
X137668000Y-72771000D01*
X137744200Y-72694800D02*
X137744200Y-70916800D01*
D22*
X135547100Y-62774500D02*
X133108700Y-62774500D01*
D23*
X138785600Y-69875400D02*
X139877800Y-69875400D01*
X135547100Y-61734700D02*
X135547100Y-62774500D01*
X139877800Y-68554600D02*
X140792200Y-67640200D01*
X139877800Y-69875400D02*
X139877800Y-68554600D01*
X140792200Y-67640200D02*
X140792200Y-62001400D01*
X140792200Y-62001400D02*
X139649200Y-60858400D01*
X139649200Y-60858400D02*
X136423400Y-60858400D01*
X136423400Y-60858400D02*
X135547100Y-61734700D01*
X137744200Y-80746600D02*
X137744200Y-72694800D01*
X133527800Y-85267800D02*
X136017000Y-82778600D01*
X133527800Y-86385400D02*
X133527800Y-85267800D01*
X136017000Y-82778600D02*
X136448800Y-82778600D01*
X136448800Y-82778600D02*
X137312400Y-81915000D01*
X137312400Y-81915000D02*
X137312400Y-81178400D01*
X137312400Y-81178400D02*
X137744200Y-80746600D01*
D24*
X130987800Y-102412800D02*
X130987800Y-101625400D01*
X129794001Y-103606599D02*
X130987800Y-102412800D01*
X124637800Y-102895400D02*
X125348999Y-103606599D01*
X125348999Y-103606599D02*
X129794001Y-103606599D01*
D25*
X129786400Y-74041000D02*
X129786400Y-75311000D01*
X128244600Y-79146400D02*
X128270000Y-79121000D01*
X136347200Y-74041000D02*
X135186400Y-74041000D01*
X136702800Y-74396600D02*
X136347200Y-74041000D01*
X135186400Y-80391000D02*
X136241200Y-80391000D01*
X136241200Y-80391000D02*
X136702800Y-79929400D01*
X136652000Y-76581000D02*
X135186400Y-76581000D01*
X136702800Y-76530200D02*
X136652000Y-76581000D01*
X136702800Y-76530200D02*
X136702800Y-74396600D01*
X136702800Y-79929400D02*
X136702800Y-76530200D01*
X128244600Y-79146400D02*
X128244600Y-75692000D01*
X129786400Y-74041000D02*
X130841200Y-74041000D01*
X133070600Y-74015600D02*
X133070600Y-72161400D01*
X133096000Y-74041000D02*
X133070600Y-74015600D01*
X133096000Y-74041000D02*
X135186400Y-74041000D01*
X130841200Y-74041000D02*
X133096000Y-74041000D01*
X125612800Y-67363700D02*
X125612800Y-65929400D01*
X125412500Y-67564000D02*
X125612800Y-67363700D01*
X124714000Y-67564000D02*
X125412500Y-67564000D01*
X124312800Y-65929400D02*
X124312800Y-67162800D01*
X124312800Y-67162800D02*
X124714000Y-67564000D01*
X133070600Y-72161400D02*
X133070600Y-69621400D01*
D26*
X132486400Y-97383600D02*
X133350000Y-96520000D01*
X130200400Y-97383600D02*
X132486400Y-97383600D01*
X129717800Y-97866200D02*
X130200400Y-97383600D01*
X130987800Y-101625400D02*
X129717800Y-100355400D01*
X129717800Y-100355400D02*
X129717800Y-97866200D01*
D25*
X127177800Y-100355400D02*
X124637800Y-100355400D01*
X128447800Y-99085400D02*
X127177800Y-100355400D01*
X138557000Y-81076800D02*
X138557000Y-76276200D01*
X138122010Y-81511790D02*
X138557000Y-81076800D01*
X138122010Y-82400790D02*
X138122010Y-81511790D01*
X137337800Y-83185000D02*
X138122010Y-82400790D01*
X134823200Y-90220800D02*
X134823200Y-88290400D01*
X136067800Y-91465400D02*
X134823200Y-90220800D01*
X134823200Y-88290400D02*
X135458200Y-87655400D01*
X138557000Y-76276200D02*
X139877800Y-74955400D01*
X135458200Y-87655400D02*
X136677400Y-87655400D01*
X136677400Y-87655400D02*
X137337800Y-86995000D01*
X137337800Y-86995000D02*
X137337800Y-83185000D01*
X124180600Y-95275400D02*
X124637800Y-95275400D01*
X123342400Y-96113600D02*
X124180600Y-95275400D01*
X123342400Y-98298000D02*
X123342400Y-96113600D01*
X125907800Y-99085400D02*
X124129800Y-99085400D01*
X124129800Y-99085400D02*
X123342400Y-98298000D01*
X138709400Y-81889600D02*
X139877800Y-80721200D01*
X137363200Y-92710000D02*
X137363200Y-87807800D01*
X136067800Y-94005400D02*
X137363200Y-92710000D01*
X137363200Y-87807800D02*
X137972800Y-87198200D01*
X137972800Y-87198200D02*
X137972800Y-83464400D01*
X139877800Y-80721200D02*
X139877800Y-80035400D01*
X137972800Y-83464400D02*
X138709400Y-82727800D01*
X138709400Y-82727800D02*
X138709400Y-81889600D01*
X136332012Y-95275400D02*
X135204200Y-95275400D01*
X137602012Y-94005400D02*
X136332012Y-95275400D01*
X138607800Y-94005400D02*
X137602012Y-94005400D01*
X135204200Y-95275400D02*
X132257800Y-92329000D01*
X132257800Y-92329000D02*
X132257800Y-88138678D01*
X134823200Y-85648802D02*
X135567003Y-84904999D01*
X135567003Y-84904999D02*
X136017002Y-84455000D01*
X134823200Y-87122000D02*
X134823200Y-85648802D01*
X134289800Y-87655400D02*
X134823200Y-87122000D01*
X132741078Y-87655400D02*
X134289800Y-87655400D01*
X132257800Y-88138678D02*
X132741078Y-87655400D01*
X140563600Y-87655400D02*
X139877800Y-87655400D01*
X141097000Y-88188800D02*
X140563600Y-87655400D01*
X141097000Y-96088200D02*
X141097000Y-88188800D01*
X138607800Y-96545400D02*
X140639800Y-96545400D01*
X140639800Y-96545400D02*
X141097000Y-96088200D01*
X123926600Y-85115400D02*
X124637800Y-85115400D01*
X123342400Y-85699600D02*
X123926600Y-85115400D01*
X123342400Y-93446600D02*
X123342400Y-85699600D01*
X125907800Y-94005400D02*
X123901200Y-94005400D01*
X123901200Y-94005400D02*
X123342400Y-93446600D01*
X125450600Y-82575400D02*
X124637800Y-82575400D01*
X127177800Y-84302600D02*
X125450600Y-82575400D01*
X127177800Y-90805000D02*
X127177800Y-84302600D01*
X128447800Y-91465400D02*
X127838200Y-91465400D01*
X127838200Y-91465400D02*
X127177800Y-90805000D01*
X126618999Y-92176599D02*
X125907800Y-91465400D01*
X124637800Y-80568800D02*
X129717800Y-85648800D01*
X124637800Y-80035400D02*
X124637800Y-80568800D01*
X129717800Y-92182328D02*
X129139328Y-92760800D01*
X129139328Y-92760800D02*
X127203200Y-92760800D01*
X129717800Y-85648800D02*
X129717800Y-92182328D01*
X127203200Y-92760800D02*
X126618999Y-92176599D01*
X137363200Y-100330000D02*
X136067800Y-101625400D01*
X137363200Y-95758000D02*
X137363200Y-100330000D01*
X139877800Y-95275400D02*
X137845800Y-95275400D01*
X137845800Y-95275400D02*
X137363200Y-95758000D01*
X132181600Y-100279200D02*
X130987800Y-99085400D01*
X139623800Y-103149400D02*
X135458200Y-103149400D01*
X139877800Y-102895400D02*
X139623800Y-103149400D01*
X135458200Y-103149400D02*
X134797800Y-102489000D01*
X134797800Y-102489000D02*
X134797800Y-100761800D01*
X134797800Y-100761800D02*
X134315200Y-100279200D01*
X134315200Y-100279200D02*
X132181600Y-100279200D01*
X125612800Y-61629400D02*
X125612800Y-60112000D01*
X125612800Y-60112000D02*
X125628400Y-60096400D01*
D22*
X131546600Y-75311000D02*
X135186400Y-75311000D01*
X132942000Y-65582800D02*
X133108700Y-65749500D01*
X132967400Y-65608200D02*
X133108700Y-65749500D01*
D25*
X124962800Y-62484200D02*
X124962800Y-61629400D01*
X128163000Y-65684400D02*
X124962800Y-62484200D01*
X127862000Y-66406700D02*
X127862000Y-65608200D01*
D22*
X128689100Y-67233800D02*
X127862000Y-66406700D01*
X132436900Y-67233800D02*
X128689100Y-67233800D01*
X133108700Y-65749500D02*
X133108700Y-66562000D01*
X133108700Y-66562000D02*
X132436900Y-67233800D01*
X137109200Y-64820800D02*
X139192000Y-64820800D01*
X136474200Y-64185800D02*
X137109200Y-64820800D01*
X133859900Y-64185800D02*
X136474200Y-64185800D01*
X133108700Y-65749500D02*
X133108700Y-64937000D01*
X133108700Y-64937000D02*
X133859900Y-64185800D01*
X127876300Y-60818700D02*
X127862000Y-60833000D01*
X129565400Y-57632600D02*
X129133600Y-58064400D01*
X129565400Y-59129600D02*
X127862000Y-60833000D01*
X129565400Y-57632600D02*
X129565400Y-59129600D01*
D25*
X127025400Y-58521600D02*
X127025400Y-57632600D01*
X126263400Y-59283600D02*
X127025400Y-58521600D01*
X125018800Y-59283600D02*
X126263400Y-59283600D01*
X124312800Y-61629400D02*
X124312800Y-59989600D01*
X124312800Y-59989600D02*
X125018800Y-59283600D01*
X130837000Y-56669000D02*
X130837000Y-60833000D01*
X130276600Y-56108600D02*
X130837000Y-56669000D01*
X127558800Y-56108600D02*
X130276600Y-56108600D01*
X127025400Y-57632600D02*
X127025400Y-56642000D01*
X127025400Y-56642000D02*
X127558800Y-56108600D01*
D22*
X128449400Y-63220600D02*
X130837000Y-60833000D01*
X127862000Y-63220600D02*
X128449400Y-63220600D01*
X135186400Y-79121000D02*
X133578600Y-79121000D01*
D25*
X133578600Y-79121000D02*
X133553200Y-79095600D01*
D22*
X131622800Y-77851000D02*
X129786400Y-77851000D01*
D25*
X132105400Y-56921400D02*
X132105400Y-57632600D01*
X123662800Y-65929400D02*
X123662800Y-65074600D01*
X122961400Y-56769000D02*
X124282200Y-55448200D01*
X123662800Y-65074600D02*
X122961400Y-64373200D01*
X122961400Y-64373200D02*
X122961400Y-56769000D01*
X124282200Y-55448200D02*
X130632200Y-55448200D01*
X130632200Y-55448200D02*
X132105400Y-56921400D01*
D22*
X129786400Y-70365600D02*
X130530600Y-69621400D01*
X129786400Y-72771000D02*
X129786400Y-70365600D01*
X135547100Y-66865500D02*
X135547100Y-65749500D01*
X134442200Y-67970400D02*
X135547100Y-66865500D01*
X131026800Y-67970400D02*
X134442200Y-67970400D01*
X130530600Y-69621400D02*
X130530600Y-68466600D01*
X130530600Y-68466600D02*
X131026800Y-67970400D01*
D25*
X130987800Y-86385400D02*
X130987800Y-86281092D01*
D22*
X130987800Y-85420200D02*
X130987800Y-86385400D01*
X132511800Y-83896200D02*
X130987800Y-85420200D01*
X132511800Y-78663800D02*
X132511800Y-83896200D01*
X135186400Y-77851000D02*
X133324600Y-77851000D01*
X133324600Y-77851000D02*
X132511800Y-78663800D01*
X135186400Y-82265800D02*
X135186400Y-81661000D01*
X132257800Y-85194400D02*
X135186400Y-82265800D01*
X132257800Y-87198200D02*
X132257800Y-85194400D01*
X130987800Y-88925400D02*
X130987800Y-88468200D01*
X130987800Y-88468200D02*
X132257800Y-87198200D01*
X131546600Y-80391000D02*
X129786400Y-80391000D01*
D25*
X141122400Y-76352400D02*
X140995400Y-76225400D01*
X141122400Y-83312000D02*
X141122400Y-76352400D01*
X140589000Y-83845400D02*
X141122400Y-83312000D01*
X139367271Y-83845400D02*
X140589000Y-83845400D01*
X138607800Y-88925400D02*
X138607800Y-84604871D01*
X138607800Y-84604871D02*
X139367271Y-83845400D01*
D27*
G36*
X141326001Y-104242000D02*
G01*
X124738346Y-104242000D01*
X124973913Y-104205691D01*
X125223080Y-104114942D01*
X125326648Y-104059583D01*
X125387468Y-103824673D01*
X124637800Y-103075005D01*
X123888132Y-103824673D01*
X123948952Y-104059583D01*
X124189309Y-104171602D01*
X124446902Y-104234576D01*
X124617767Y-104242000D01*
X123088000Y-104242000D01*
X123088000Y-102969430D01*
X123287113Y-102969430D01*
X123327509Y-103231513D01*
X123418258Y-103480680D01*
X123473617Y-103584248D01*
X123708527Y-103645068D01*
X124458195Y-102895400D01*
X124817405Y-102895400D01*
X125567073Y-103645068D01*
X125801983Y-103584248D01*
X125914002Y-103343891D01*
X125976976Y-103086298D01*
X125988487Y-102821370D01*
X125948091Y-102559287D01*
X125857342Y-102310120D01*
X125801983Y-102206552D01*
X125567073Y-102145732D01*
X124817405Y-102895400D01*
X124458195Y-102895400D01*
X123708527Y-102145732D01*
X123473617Y-102206552D01*
X123361598Y-102446909D01*
X123298624Y-102704502D01*
X123287113Y-102969430D01*
X123088000Y-102969430D01*
X123088000Y-99157150D01*
X123526432Y-99595583D01*
X123444813Y-99717735D01*
X123343333Y-99962728D01*
X123291600Y-100222811D01*
X123291600Y-100487989D01*
X123343333Y-100748072D01*
X123444813Y-100993065D01*
X123592138Y-101213553D01*
X123779647Y-101401062D01*
X124000135Y-101548387D01*
X124188400Y-101626369D01*
X124052520Y-101675858D01*
X123948952Y-101731217D01*
X123888132Y-101966127D01*
X124637800Y-102715795D01*
X125387468Y-101966127D01*
X125326648Y-101731217D01*
X125094866Y-101623194D01*
X125275465Y-101548387D01*
X125495953Y-101401062D01*
X125683462Y-101213553D01*
X125730738Y-101142800D01*
X127139137Y-101142800D01*
X127177800Y-101146608D01*
X127189482Y-101145457D01*
X127153333Y-101232728D01*
X127101600Y-101492811D01*
X127101600Y-101757989D01*
X127153333Y-102018072D01*
X127254813Y-102263065D01*
X127402138Y-102483553D01*
X127589647Y-102671062D01*
X127810135Y-102818387D01*
X128055128Y-102919867D01*
X128315211Y-102971600D01*
X128580389Y-102971600D01*
X128840472Y-102919867D01*
X129085465Y-102818387D01*
X129305953Y-102671062D01*
X129422342Y-102554673D01*
X130238132Y-102554673D01*
X130298952Y-102789583D01*
X130539309Y-102901602D01*
X130796902Y-102964576D01*
X131061830Y-102976087D01*
X131323913Y-102935691D01*
X131573080Y-102844942D01*
X131676648Y-102789583D01*
X131737468Y-102554673D01*
X130987800Y-101805005D01*
X130238132Y-102554673D01*
X129422342Y-102554673D01*
X129493462Y-102483553D01*
X129640787Y-102263065D01*
X129718769Y-102074800D01*
X129768258Y-102210680D01*
X129823617Y-102314248D01*
X130058527Y-102375068D01*
X130808195Y-101625400D01*
X130058527Y-100875732D01*
X129823617Y-100936552D01*
X129715594Y-101168334D01*
X129640787Y-100987735D01*
X129493462Y-100767247D01*
X129305953Y-100579738D01*
X129085465Y-100432413D01*
X128899540Y-100355400D01*
X129085465Y-100278387D01*
X129305953Y-100131062D01*
X129493462Y-99943553D01*
X129640787Y-99723065D01*
X129717800Y-99537140D01*
X129794813Y-99723065D01*
X129942138Y-99943553D01*
X130129647Y-100131062D01*
X130350135Y-100278387D01*
X130538400Y-100356369D01*
X130402520Y-100405858D01*
X130298952Y-100461217D01*
X130238132Y-100696127D01*
X130987800Y-101445795D01*
X131001943Y-101431653D01*
X131181548Y-101611258D01*
X131167405Y-101625400D01*
X131917073Y-102375068D01*
X132151983Y-102314248D01*
X132260006Y-102082466D01*
X132334813Y-102263065D01*
X132482138Y-102483553D01*
X132669647Y-102671062D01*
X132890135Y-102818387D01*
X133135128Y-102919867D01*
X133395211Y-102971600D01*
X133660389Y-102971600D01*
X133920472Y-102919867D01*
X134096343Y-102847019D01*
X134139934Y-102928571D01*
X134238331Y-103048469D01*
X134268377Y-103073127D01*
X134874081Y-103678833D01*
X134898731Y-103708869D01*
X134928767Y-103733519D01*
X134928770Y-103733522D01*
X135018627Y-103807265D01*
X135018628Y-103807266D01*
X135155417Y-103880382D01*
X135303843Y-103925406D01*
X135419527Y-103936800D01*
X135419535Y-103936800D01*
X135458200Y-103940608D01*
X135496865Y-103936800D01*
X139015385Y-103936800D01*
X139019647Y-103941062D01*
X139240135Y-104088387D01*
X139485128Y-104189867D01*
X139745211Y-104241600D01*
X140010389Y-104241600D01*
X140270472Y-104189867D01*
X140515465Y-104088387D01*
X140735953Y-103941062D01*
X140923462Y-103753553D01*
X141070787Y-103533065D01*
X141172267Y-103288072D01*
X141224000Y-103027989D01*
X141224000Y-102762811D01*
X141172267Y-102502728D01*
X141070787Y-102257735D01*
X140923462Y-102037247D01*
X140735953Y-101849738D01*
X140515465Y-101702413D01*
X140329540Y-101625400D01*
X140515465Y-101548387D01*
X140735953Y-101401062D01*
X140923462Y-101213553D01*
X141070787Y-100993065D01*
X141172267Y-100748072D01*
X141224000Y-100487989D01*
X141224000Y-100222811D01*
X141172267Y-99962728D01*
X141070787Y-99717735D01*
X140923462Y-99497247D01*
X140735953Y-99309738D01*
X140515465Y-99162413D01*
X140329540Y-99085400D01*
X140515465Y-99008387D01*
X140735953Y-98861062D01*
X140923462Y-98673553D01*
X141070787Y-98453065D01*
X141172267Y-98208072D01*
X141224000Y-97947989D01*
X141224000Y-97682811D01*
X141172267Y-97422728D01*
X141080857Y-97202047D01*
X141199269Y-97104869D01*
X141223927Y-97074823D01*
X141326001Y-96972749D01*
X141326001Y-104242000D01*
X141326001Y-104242000D01*
G37*
X141326001Y-104242000D02*
X124738346Y-104242000D01*
X124973913Y-104205691D01*
X125223080Y-104114942D01*
X125326648Y-104059583D01*
X125387468Y-103824673D01*
X124637800Y-103075005D01*
X123888132Y-103824673D01*
X123948952Y-104059583D01*
X124189309Y-104171602D01*
X124446902Y-104234576D01*
X124617767Y-104242000D01*
X123088000Y-104242000D01*
X123088000Y-102969430D01*
X123287113Y-102969430D01*
X123327509Y-103231513D01*
X123418258Y-103480680D01*
X123473617Y-103584248D01*
X123708527Y-103645068D01*
X124458195Y-102895400D01*
X124817405Y-102895400D01*
X125567073Y-103645068D01*
X125801983Y-103584248D01*
X125914002Y-103343891D01*
X125976976Y-103086298D01*
X125988487Y-102821370D01*
X125948091Y-102559287D01*
X125857342Y-102310120D01*
X125801983Y-102206552D01*
X125567073Y-102145732D01*
X124817405Y-102895400D01*
X124458195Y-102895400D01*
X123708527Y-102145732D01*
X123473617Y-102206552D01*
X123361598Y-102446909D01*
X123298624Y-102704502D01*
X123287113Y-102969430D01*
X123088000Y-102969430D01*
X123088000Y-99157150D01*
X123526432Y-99595583D01*
X123444813Y-99717735D01*
X123343333Y-99962728D01*
X123291600Y-100222811D01*
X123291600Y-100487989D01*
X123343333Y-100748072D01*
X123444813Y-100993065D01*
X123592138Y-101213553D01*
X123779647Y-101401062D01*
X124000135Y-101548387D01*
X124188400Y-101626369D01*
X124052520Y-101675858D01*
X123948952Y-101731217D01*
X123888132Y-101966127D01*
X124637800Y-102715795D01*
X125387468Y-101966127D01*
X125326648Y-101731217D01*
X125094866Y-101623194D01*
X125275465Y-101548387D01*
X125495953Y-101401062D01*
X125683462Y-101213553D01*
X125730738Y-101142800D01*
X127139137Y-101142800D01*
X127177800Y-101146608D01*
X127189482Y-101145457D01*
X127153333Y-101232728D01*
X127101600Y-101492811D01*
X127101600Y-101757989D01*
X127153333Y-102018072D01*
X127254813Y-102263065D01*
X127402138Y-102483553D01*
X127589647Y-102671062D01*
X127810135Y-102818387D01*
X128055128Y-102919867D01*
X128315211Y-102971600D01*
X128580389Y-102971600D01*
X128840472Y-102919867D01*
X129085465Y-102818387D01*
X129305953Y-102671062D01*
X129422342Y-102554673D01*
X130238132Y-102554673D01*
X130298952Y-102789583D01*
X130539309Y-102901602D01*
X130796902Y-102964576D01*
X131061830Y-102976087D01*
X131323913Y-102935691D01*
X131573080Y-102844942D01*
X131676648Y-102789583D01*
X131737468Y-102554673D01*
X130987800Y-101805005D01*
X130238132Y-102554673D01*
X129422342Y-102554673D01*
X129493462Y-102483553D01*
X129640787Y-102263065D01*
X129718769Y-102074800D01*
X129768258Y-102210680D01*
X129823617Y-102314248D01*
X130058527Y-102375068D01*
X130808195Y-101625400D01*
X130058527Y-100875732D01*
X129823617Y-100936552D01*
X129715594Y-101168334D01*
X129640787Y-100987735D01*
X129493462Y-100767247D01*
X129305953Y-100579738D01*
X129085465Y-100432413D01*
X128899540Y-100355400D01*
X129085465Y-100278387D01*
X129305953Y-100131062D01*
X129493462Y-99943553D01*
X129640787Y-99723065D01*
X129717800Y-99537140D01*
X129794813Y-99723065D01*
X129942138Y-99943553D01*
X130129647Y-100131062D01*
X130350135Y-100278387D01*
X130538400Y-100356369D01*
X130402520Y-100405858D01*
X130298952Y-100461217D01*
X130238132Y-100696127D01*
X130987800Y-101445795D01*
X131001943Y-101431653D01*
X131181548Y-101611258D01*
X131167405Y-101625400D01*
X131917073Y-102375068D01*
X132151983Y-102314248D01*
X132260006Y-102082466D01*
X132334813Y-102263065D01*
X132482138Y-102483553D01*
X132669647Y-102671062D01*
X132890135Y-102818387D01*
X133135128Y-102919867D01*
X133395211Y-102971600D01*
X133660389Y-102971600D01*
X133920472Y-102919867D01*
X134096343Y-102847019D01*
X134139934Y-102928571D01*
X134238331Y-103048469D01*
X134268377Y-103073127D01*
X134874081Y-103678833D01*
X134898731Y-103708869D01*
X134928767Y-103733519D01*
X134928770Y-103733522D01*
X135018627Y-103807265D01*
X135018628Y-103807266D01*
X135155417Y-103880382D01*
X135303843Y-103925406D01*
X135419527Y-103936800D01*
X135419535Y-103936800D01*
X135458200Y-103940608D01*
X135496865Y-103936800D01*
X139015385Y-103936800D01*
X139019647Y-103941062D01*
X139240135Y-104088387D01*
X139485128Y-104189867D01*
X139745211Y-104241600D01*
X140010389Y-104241600D01*
X140270472Y-104189867D01*
X140515465Y-104088387D01*
X140735953Y-103941062D01*
X140923462Y-103753553D01*
X141070787Y-103533065D01*
X141172267Y-103288072D01*
X141224000Y-103027989D01*
X141224000Y-102762811D01*
X141172267Y-102502728D01*
X141070787Y-102257735D01*
X140923462Y-102037247D01*
X140735953Y-101849738D01*
X140515465Y-101702413D01*
X140329540Y-101625400D01*
X140515465Y-101548387D01*
X140735953Y-101401062D01*
X140923462Y-101213553D01*
X141070787Y-100993065D01*
X141172267Y-100748072D01*
X141224000Y-100487989D01*
X141224000Y-100222811D01*
X141172267Y-99962728D01*
X141070787Y-99717735D01*
X140923462Y-99497247D01*
X140735953Y-99309738D01*
X140515465Y-99162413D01*
X140329540Y-99085400D01*
X140515465Y-99008387D01*
X140735953Y-98861062D01*
X140923462Y-98673553D01*
X141070787Y-98453065D01*
X141172267Y-98208072D01*
X141224000Y-97947989D01*
X141224000Y-97682811D01*
X141172267Y-97422728D01*
X141080857Y-97202047D01*
X141199269Y-97104869D01*
X141223927Y-97074823D01*
X141326001Y-96972749D01*
X141326001Y-104242000D01*
G36*
X131470400Y-92290337D02*
G01*
X131466592Y-92329000D01*
X131470400Y-92367663D01*
X131470400Y-92367672D01*
X131481794Y-92483356D01*
X131526818Y-92631782D01*
X131599934Y-92768571D01*
X131698331Y-92888469D01*
X131728378Y-92913128D01*
X134620077Y-95804828D01*
X134644731Y-95834869D01*
X134674770Y-95859521D01*
X134764627Y-95933266D01*
X134846181Y-95976858D01*
X134773333Y-96152728D01*
X134721600Y-96412811D01*
X134721600Y-96677989D01*
X134773333Y-96938072D01*
X134874813Y-97183065D01*
X135022138Y-97403553D01*
X135209647Y-97591062D01*
X135430135Y-97738387D01*
X135616060Y-97815400D01*
X135430135Y-97892413D01*
X135209647Y-98039738D01*
X135022138Y-98227247D01*
X134874813Y-98447735D01*
X134797800Y-98633660D01*
X134720787Y-98447735D01*
X134573462Y-98227247D01*
X134385953Y-98039738D01*
X134165465Y-97892413D01*
X133920472Y-97790933D01*
X133660389Y-97739200D01*
X133395211Y-97739200D01*
X133135128Y-97790933D01*
X132890135Y-97892413D01*
X132669647Y-98039738D01*
X132482138Y-98227247D01*
X132334813Y-98447735D01*
X132257800Y-98633660D01*
X132180787Y-98447735D01*
X132033462Y-98227247D01*
X131845953Y-98039738D01*
X131625465Y-97892413D01*
X131380472Y-97790933D01*
X131120389Y-97739200D01*
X130855211Y-97739200D01*
X130595128Y-97790933D01*
X130350135Y-97892413D01*
X130129647Y-98039738D01*
X129942138Y-98227247D01*
X129794813Y-98447735D01*
X129717800Y-98633660D01*
X129640787Y-98447735D01*
X129493462Y-98227247D01*
X129305953Y-98039738D01*
X129085465Y-97892413D01*
X128899540Y-97815400D01*
X129085465Y-97738387D01*
X129305953Y-97591062D01*
X129493462Y-97403553D01*
X129640787Y-97183065D01*
X129742267Y-96938072D01*
X129794000Y-96677989D01*
X129794000Y-96412811D01*
X129742267Y-96152728D01*
X129640787Y-95907735D01*
X129493462Y-95687247D01*
X129305953Y-95499738D01*
X129085465Y-95352413D01*
X128899540Y-95275400D01*
X129085465Y-95198387D01*
X129305953Y-95051062D01*
X129493462Y-94863553D01*
X129640787Y-94643065D01*
X129742267Y-94398072D01*
X129794000Y-94137989D01*
X129794000Y-93872811D01*
X129742267Y-93612728D01*
X129640831Y-93367841D01*
X129698797Y-93320269D01*
X129723455Y-93290223D01*
X130247227Y-92766452D01*
X130277269Y-92741797D01*
X130348180Y-92655392D01*
X130375666Y-92621901D01*
X130448782Y-92485111D01*
X130472410Y-92407218D01*
X130493806Y-92336685D01*
X130505200Y-92221001D01*
X130505200Y-92220991D01*
X130509008Y-92182328D01*
X130505200Y-92143665D01*
X130505200Y-90182617D01*
X130595128Y-90219867D01*
X130855211Y-90271600D01*
X131120389Y-90271600D01*
X131380472Y-90219867D01*
X131470401Y-90182617D01*
X131470400Y-92290337D01*
X131470400Y-92290337D01*
G37*
X131470400Y-92290337D02*
X131466592Y-92329000D01*
X131470400Y-92367663D01*
X131470400Y-92367672D01*
X131481794Y-92483356D01*
X131526818Y-92631782D01*
X131599934Y-92768571D01*
X131698331Y-92888469D01*
X131728378Y-92913128D01*
X134620077Y-95804828D01*
X134644731Y-95834869D01*
X134674770Y-95859521D01*
X134764627Y-95933266D01*
X134846181Y-95976858D01*
X134773333Y-96152728D01*
X134721600Y-96412811D01*
X134721600Y-96677989D01*
X134773333Y-96938072D01*
X134874813Y-97183065D01*
X135022138Y-97403553D01*
X135209647Y-97591062D01*
X135430135Y-97738387D01*
X135616060Y-97815400D01*
X135430135Y-97892413D01*
X135209647Y-98039738D01*
X135022138Y-98227247D01*
X134874813Y-98447735D01*
X134797800Y-98633660D01*
X134720787Y-98447735D01*
X134573462Y-98227247D01*
X134385953Y-98039738D01*
X134165465Y-97892413D01*
X133920472Y-97790933D01*
X133660389Y-97739200D01*
X133395211Y-97739200D01*
X133135128Y-97790933D01*
X132890135Y-97892413D01*
X132669647Y-98039738D01*
X132482138Y-98227247D01*
X132334813Y-98447735D01*
X132257800Y-98633660D01*
X132180787Y-98447735D01*
X132033462Y-98227247D01*
X131845953Y-98039738D01*
X131625465Y-97892413D01*
X131380472Y-97790933D01*
X131120389Y-97739200D01*
X130855211Y-97739200D01*
X130595128Y-97790933D01*
X130350135Y-97892413D01*
X130129647Y-98039738D01*
X129942138Y-98227247D01*
X129794813Y-98447735D01*
X129717800Y-98633660D01*
X129640787Y-98447735D01*
X129493462Y-98227247D01*
X129305953Y-98039738D01*
X129085465Y-97892413D01*
X128899540Y-97815400D01*
X129085465Y-97738387D01*
X129305953Y-97591062D01*
X129493462Y-97403553D01*
X129640787Y-97183065D01*
X129742267Y-96938072D01*
X129794000Y-96677989D01*
X129794000Y-96412811D01*
X129742267Y-96152728D01*
X129640787Y-95907735D01*
X129493462Y-95687247D01*
X129305953Y-95499738D01*
X129085465Y-95352413D01*
X128899540Y-95275400D01*
X129085465Y-95198387D01*
X129305953Y-95051062D01*
X129493462Y-94863553D01*
X129640787Y-94643065D01*
X129742267Y-94398072D01*
X129794000Y-94137989D01*
X129794000Y-93872811D01*
X129742267Y-93612728D01*
X129640831Y-93367841D01*
X129698797Y-93320269D01*
X129723455Y-93290223D01*
X130247227Y-92766452D01*
X130277269Y-92741797D01*
X130348180Y-92655392D01*
X130375666Y-92621901D01*
X130448782Y-92485111D01*
X130472410Y-92407218D01*
X130493806Y-92336685D01*
X130505200Y-92221001D01*
X130505200Y-92220991D01*
X130509008Y-92182328D01*
X130505200Y-92143665D01*
X130505200Y-90182617D01*
X130595128Y-90219867D01*
X130855211Y-90271600D01*
X131120389Y-90271600D01*
X131380472Y-90219867D01*
X131470401Y-90182617D01*
X131470400Y-92290337D01*
G36*
X126511428Y-65146379D02*
G01*
X126511428Y-66233200D01*
X126528492Y-66406454D01*
X126579028Y-66573050D01*
X126661095Y-66726586D01*
X126771538Y-66861162D01*
X126906114Y-66971605D01*
X127059650Y-67053672D01*
X127226246Y-67104208D01*
X127390270Y-67120363D01*
X128067293Y-67797387D01*
X128093536Y-67829364D01*
X128221168Y-67934109D01*
X128366783Y-68011942D01*
X128524784Y-68059871D01*
X128647930Y-68072000D01*
X128647936Y-68072000D01*
X128689099Y-68076054D01*
X128730262Y-68072000D01*
X129791095Y-68072000D01*
X129758314Y-68133328D01*
X129680600Y-68133328D01*
X129556118Y-68145588D01*
X129436420Y-68181898D01*
X129326106Y-68240863D01*
X129229415Y-68320215D01*
X129150063Y-68416906D01*
X129091098Y-68527220D01*
X129054788Y-68646918D01*
X129042528Y-68771400D01*
X129042528Y-69979169D01*
X129008258Y-70043284D01*
X128960329Y-70201285D01*
X128944146Y-70365600D01*
X128948201Y-70406772D01*
X128948200Y-71841615D01*
X128911918Y-71845188D01*
X128792220Y-71881498D01*
X128681906Y-71940463D01*
X128585215Y-72019815D01*
X128505863Y-72116506D01*
X128446898Y-72226820D01*
X128410588Y-72346518D01*
X128398328Y-72471000D01*
X128398328Y-73071000D01*
X128410588Y-73195482D01*
X128446898Y-73315180D01*
X128495443Y-73406000D01*
X128446898Y-73496820D01*
X128410588Y-73616518D01*
X128398328Y-73741000D01*
X128401400Y-73755250D01*
X128560150Y-73914000D01*
X129659400Y-73914000D01*
X129659400Y-73894000D01*
X129913400Y-73894000D01*
X129913400Y-73914000D01*
X131012650Y-73914000D01*
X131171400Y-73755250D01*
X131174472Y-73741000D01*
X131162212Y-73616518D01*
X131125902Y-73496820D01*
X131077357Y-73406000D01*
X131125902Y-73315180D01*
X131162212Y-73195482D01*
X131174472Y-73071000D01*
X131174472Y-72471000D01*
X131162212Y-72346518D01*
X131125902Y-72226820D01*
X131066937Y-72116506D01*
X130987585Y-72019815D01*
X130890894Y-71940463D01*
X130780580Y-71881498D01*
X130660882Y-71845188D01*
X130624600Y-71841615D01*
X130624600Y-71109472D01*
X131380600Y-71109472D01*
X131505082Y-71097212D01*
X131624780Y-71060902D01*
X131735094Y-71001937D01*
X131831785Y-70922585D01*
X131911137Y-70825894D01*
X131970102Y-70715580D01*
X131994566Y-70634934D01*
X132070331Y-70718988D01*
X132303680Y-70893041D01*
X132566501Y-71018225D01*
X132713710Y-71062876D01*
X132943600Y-70941555D01*
X132943600Y-69748400D01*
X133197600Y-69748400D01*
X133197600Y-70941555D01*
X133427490Y-71062876D01*
X133574699Y-71018225D01*
X133837520Y-70893041D01*
X134070869Y-70718988D01*
X134265778Y-70502755D01*
X134414757Y-70252652D01*
X134512081Y-69978291D01*
X134391414Y-69748400D01*
X133197600Y-69748400D01*
X132943600Y-69748400D01*
X132923600Y-69748400D01*
X132923600Y-69494400D01*
X132943600Y-69494400D01*
X132943600Y-69474400D01*
X133197600Y-69474400D01*
X133197600Y-69494400D01*
X134391414Y-69494400D01*
X134512081Y-69264509D01*
X134414757Y-68990148D01*
X134306614Y-68808600D01*
X134401037Y-68808600D01*
X134442200Y-68812654D01*
X134483363Y-68808600D01*
X134483370Y-68808600D01*
X134606516Y-68796471D01*
X134764517Y-68748542D01*
X134910132Y-68670709D01*
X135037764Y-68565964D01*
X135064011Y-68533982D01*
X136110689Y-67487305D01*
X136142664Y-67461064D01*
X136234968Y-67348592D01*
X136247409Y-67333432D01*
X136325242Y-67187817D01*
X136358219Y-67079105D01*
X136511950Y-67032472D01*
X136665486Y-66950405D01*
X136800062Y-66839962D01*
X136910505Y-66705386D01*
X136992572Y-66551850D01*
X137043108Y-66385254D01*
X137060172Y-66212000D01*
X137060172Y-65658226D01*
X137068030Y-65659000D01*
X137068037Y-65659000D01*
X137109200Y-65663054D01*
X137150363Y-65659000D01*
X138000684Y-65659000D01*
X138002498Y-65664980D01*
X138061463Y-65775294D01*
X138140815Y-65871985D01*
X138237506Y-65951337D01*
X138347820Y-66010302D01*
X138467518Y-66046612D01*
X138592000Y-66058872D01*
X139792000Y-66058872D01*
X139852400Y-66052923D01*
X139852400Y-67250923D01*
X139245910Y-67857414D01*
X139210047Y-67886846D01*
X139180617Y-67922707D01*
X139092604Y-68029949D01*
X139005338Y-68193214D01*
X138951599Y-68370367D01*
X138933454Y-68554600D01*
X138935056Y-68570865D01*
X138922420Y-68574698D01*
X138812106Y-68633663D01*
X138715415Y-68713015D01*
X138636063Y-68809706D01*
X138577098Y-68920020D01*
X138564890Y-68960263D01*
X138424214Y-69002937D01*
X138381373Y-69025836D01*
X138260948Y-69090204D01*
X138200794Y-69139572D01*
X138117846Y-69207646D01*
X138088413Y-69243510D01*
X137112310Y-70219614D01*
X137076447Y-70249046D01*
X137047017Y-70284907D01*
X136959004Y-70392149D01*
X136871738Y-70555414D01*
X136817999Y-70732567D01*
X136799854Y-70916800D01*
X136804401Y-70962967D01*
X136804400Y-71831200D01*
X135140233Y-71831200D01*
X135122688Y-71832928D01*
X134436400Y-71832928D01*
X134311918Y-71845188D01*
X134192220Y-71881498D01*
X134081906Y-71940463D01*
X133985215Y-72019815D01*
X133905863Y-72116506D01*
X133846898Y-72226820D01*
X133810588Y-72346518D01*
X133798328Y-72471000D01*
X133798328Y-73071000D01*
X133810588Y-73195482D01*
X133846898Y-73315180D01*
X133895443Y-73406000D01*
X133846898Y-73496820D01*
X133810588Y-73616518D01*
X133798328Y-73741000D01*
X133801400Y-73755250D01*
X133960150Y-73914000D01*
X135059400Y-73914000D01*
X135059400Y-73894000D01*
X135313400Y-73894000D01*
X135313400Y-73914000D01*
X136412650Y-73914000D01*
X136571400Y-73755250D01*
X136574472Y-73741000D01*
X136571498Y-73710800D01*
X136804401Y-73710800D01*
X136804400Y-80357324D01*
X136680510Y-80481214D01*
X136644647Y-80510646D01*
X136615217Y-80546507D01*
X136536758Y-80642108D01*
X136412650Y-80518000D01*
X135313400Y-80518000D01*
X135313400Y-80538000D01*
X135059400Y-80538000D01*
X135059400Y-80518000D01*
X133960150Y-80518000D01*
X133801400Y-80676750D01*
X133798328Y-80691000D01*
X133810588Y-80815482D01*
X133846898Y-80935180D01*
X133895443Y-81026000D01*
X133846898Y-81116820D01*
X133810588Y-81236518D01*
X133798328Y-81361000D01*
X133798328Y-81961000D01*
X133810588Y-82085482D01*
X133846898Y-82205180D01*
X133905863Y-82315494D01*
X133926349Y-82340457D01*
X133350000Y-82916806D01*
X133350000Y-80161437D01*
X133446337Y-80180600D01*
X133660063Y-80180600D01*
X133840799Y-80144649D01*
X133960150Y-80264000D01*
X135059400Y-80264000D01*
X135059400Y-80244000D01*
X135313400Y-80244000D01*
X135313400Y-80264000D01*
X136412650Y-80264000D01*
X136571400Y-80105250D01*
X136574472Y-80091000D01*
X136562212Y-79966518D01*
X136525902Y-79846820D01*
X136477357Y-79756000D01*
X136525902Y-79665180D01*
X136562212Y-79545482D01*
X136574472Y-79421000D01*
X136574472Y-78821000D01*
X136562212Y-78696518D01*
X136525902Y-78576820D01*
X136477357Y-78486000D01*
X136525902Y-78395180D01*
X136562212Y-78275482D01*
X136574472Y-78151000D01*
X136574472Y-77551000D01*
X136562212Y-77426518D01*
X136525902Y-77306820D01*
X136477357Y-77216000D01*
X136525902Y-77125180D01*
X136562212Y-77005482D01*
X136574472Y-76881000D01*
X136571400Y-76866750D01*
X136412650Y-76708000D01*
X135313400Y-76708000D01*
X135313400Y-76728000D01*
X135059400Y-76728000D01*
X135059400Y-76708000D01*
X133960150Y-76708000D01*
X133801400Y-76866750D01*
X133798328Y-76881000D01*
X133810588Y-77005482D01*
X133812808Y-77012800D01*
X133365763Y-77012800D01*
X133324600Y-77008746D01*
X133283437Y-77012800D01*
X133283430Y-77012800D01*
X133160284Y-77024929D01*
X133002283Y-77072858D01*
X132856668Y-77150691D01*
X132729036Y-77255436D01*
X132702793Y-77287413D01*
X132604475Y-77385731D01*
X132584315Y-77337060D01*
X132465575Y-77159353D01*
X132314447Y-77008225D01*
X132136740Y-76889485D01*
X131939283Y-76807696D01*
X131729663Y-76766000D01*
X131515937Y-76766000D01*
X131306317Y-76807696D01*
X131174472Y-76862308D01*
X131174472Y-76331255D01*
X131230117Y-76354304D01*
X131439737Y-76396000D01*
X131653463Y-76396000D01*
X131863083Y-76354304D01*
X132060540Y-76272515D01*
X132238247Y-76153775D01*
X132242822Y-76149200D01*
X133812808Y-76149200D01*
X133810588Y-76156518D01*
X133798328Y-76281000D01*
X133801400Y-76295250D01*
X133960150Y-76454000D01*
X135059400Y-76454000D01*
X135059400Y-76434000D01*
X135313400Y-76434000D01*
X135313400Y-76454000D01*
X136412650Y-76454000D01*
X136571400Y-76295250D01*
X136574472Y-76281000D01*
X136562212Y-76156518D01*
X136525902Y-76036820D01*
X136477357Y-75946000D01*
X136525902Y-75855180D01*
X136562212Y-75735482D01*
X136574472Y-75611000D01*
X136574472Y-75011000D01*
X136562212Y-74886518D01*
X136525902Y-74766820D01*
X136477357Y-74676000D01*
X136525902Y-74585180D01*
X136562212Y-74465482D01*
X136574472Y-74341000D01*
X136571400Y-74326750D01*
X136412650Y-74168000D01*
X135313400Y-74168000D01*
X135313400Y-74188000D01*
X135059400Y-74188000D01*
X135059400Y-74168000D01*
X133960150Y-74168000D01*
X133801400Y-74326750D01*
X133798328Y-74341000D01*
X133810588Y-74465482D01*
X133812808Y-74472800D01*
X132242822Y-74472800D01*
X132238247Y-74468225D01*
X132060540Y-74349485D01*
X131863083Y-74267696D01*
X131653463Y-74226000D01*
X131439737Y-74226000D01*
X131230117Y-74267696D01*
X131146840Y-74302190D01*
X131012650Y-74168000D01*
X129913400Y-74168000D01*
X129913400Y-75184000D01*
X129933400Y-75184000D01*
X129933400Y-75438000D01*
X129913400Y-75438000D01*
X129913400Y-75458000D01*
X129659400Y-75458000D01*
X129659400Y-75438000D01*
X128560150Y-75438000D01*
X128401400Y-75596750D01*
X128398328Y-75611000D01*
X128410588Y-75735482D01*
X128446898Y-75855180D01*
X128495443Y-75946000D01*
X128446898Y-76036820D01*
X128410588Y-76156518D01*
X128398328Y-76281000D01*
X128398328Y-76881000D01*
X128410588Y-77005482D01*
X128446898Y-77125180D01*
X128495443Y-77216000D01*
X128446898Y-77306820D01*
X128410588Y-77426518D01*
X128398328Y-77551000D01*
X128398328Y-78151000D01*
X128410588Y-78275482D01*
X128446898Y-78395180D01*
X128495443Y-78486000D01*
X128446898Y-78576820D01*
X128410588Y-78696518D01*
X128398328Y-78821000D01*
X128401400Y-78835250D01*
X128560150Y-78994000D01*
X129659400Y-78994000D01*
X129659400Y-78974000D01*
X129913400Y-78974000D01*
X129913400Y-78994000D01*
X131012650Y-78994000D01*
X131169159Y-78837491D01*
X131306317Y-78894304D01*
X131515937Y-78936000D01*
X131673600Y-78936000D01*
X131673600Y-79310006D01*
X131653463Y-79306000D01*
X131439737Y-79306000D01*
X131230117Y-79347696D01*
X131146840Y-79382190D01*
X131012650Y-79248000D01*
X129913400Y-79248000D01*
X129913400Y-79268000D01*
X129659400Y-79268000D01*
X129659400Y-79248000D01*
X128560150Y-79248000D01*
X128401400Y-79406750D01*
X128398328Y-79421000D01*
X128410588Y-79545482D01*
X128446898Y-79665180D01*
X128495443Y-79756000D01*
X128446898Y-79846820D01*
X128410588Y-79966518D01*
X128398328Y-80091000D01*
X128398328Y-80691000D01*
X128410588Y-80815482D01*
X128446898Y-80935180D01*
X128495443Y-81026000D01*
X128446898Y-81116820D01*
X128410588Y-81236518D01*
X128398328Y-81361000D01*
X128401400Y-81375250D01*
X128560150Y-81534000D01*
X129659400Y-81534000D01*
X129659400Y-81514000D01*
X129913400Y-81514000D01*
X129913400Y-81534000D01*
X131012650Y-81534000D01*
X131146840Y-81399810D01*
X131230117Y-81434304D01*
X131439737Y-81476000D01*
X131653463Y-81476000D01*
X131673601Y-81471994D01*
X131673601Y-83549005D01*
X130424218Y-84798389D01*
X130392236Y-84824636D01*
X130287491Y-84952269D01*
X130234312Y-85051761D01*
X127143551Y-81961000D01*
X128398328Y-81961000D01*
X128410588Y-82085482D01*
X128446898Y-82205180D01*
X128505863Y-82315494D01*
X128585215Y-82412185D01*
X128681906Y-82491537D01*
X128792220Y-82550502D01*
X128911918Y-82586812D01*
X129036400Y-82599072D01*
X129500650Y-82596000D01*
X129659400Y-82437250D01*
X129659400Y-81788000D01*
X129913400Y-81788000D01*
X129913400Y-82437250D01*
X130072150Y-82596000D01*
X130536400Y-82599072D01*
X130660882Y-82586812D01*
X130780580Y-82550502D01*
X130890894Y-82491537D01*
X130987585Y-82412185D01*
X131066937Y-82315494D01*
X131125902Y-82205180D01*
X131162212Y-82085482D01*
X131174472Y-81961000D01*
X131171400Y-81946750D01*
X131012650Y-81788000D01*
X129913400Y-81788000D01*
X129659400Y-81788000D01*
X128560150Y-81788000D01*
X128401400Y-81946750D01*
X128398328Y-81961000D01*
X127143551Y-81961000D01*
X125838059Y-80655509D01*
X125932267Y-80428072D01*
X125984000Y-80167989D01*
X125984000Y-79902811D01*
X125932267Y-79642728D01*
X125830787Y-79397735D01*
X125683462Y-79177247D01*
X125495953Y-78989738D01*
X125275465Y-78842413D01*
X125089540Y-78765400D01*
X125275465Y-78688387D01*
X125495953Y-78541062D01*
X125683462Y-78353553D01*
X125830787Y-78133065D01*
X125932267Y-77888072D01*
X125984000Y-77627989D01*
X125984000Y-77362811D01*
X125932267Y-77102728D01*
X125830787Y-76857735D01*
X125683462Y-76637247D01*
X125495953Y-76449738D01*
X125275465Y-76302413D01*
X125089540Y-76225400D01*
X125275465Y-76148387D01*
X125495953Y-76001062D01*
X125683462Y-75813553D01*
X125830787Y-75593065D01*
X125932267Y-75348072D01*
X125984000Y-75087989D01*
X125984000Y-74822811D01*
X125932267Y-74562728D01*
X125840424Y-74341000D01*
X128398328Y-74341000D01*
X128410588Y-74465482D01*
X128446898Y-74585180D01*
X128495443Y-74676000D01*
X128446898Y-74766820D01*
X128410588Y-74886518D01*
X128398328Y-75011000D01*
X128401400Y-75025250D01*
X128560150Y-75184000D01*
X129659400Y-75184000D01*
X129659400Y-74168000D01*
X128560150Y-74168000D01*
X128401400Y-74326750D01*
X128398328Y-74341000D01*
X125840424Y-74341000D01*
X125830787Y-74317735D01*
X125683462Y-74097247D01*
X125495953Y-73909738D01*
X125275465Y-73762413D01*
X125089540Y-73685400D01*
X125275465Y-73608387D01*
X125495953Y-73461062D01*
X125683462Y-73273553D01*
X125830787Y-73053065D01*
X125932267Y-72808072D01*
X125984000Y-72547989D01*
X125984000Y-72282811D01*
X125932267Y-72022728D01*
X125830787Y-71777735D01*
X125683462Y-71557247D01*
X125495953Y-71369738D01*
X125278846Y-71224672D01*
X125349000Y-71224672D01*
X125473482Y-71212412D01*
X125593180Y-71176102D01*
X125703494Y-71117137D01*
X125800185Y-71037785D01*
X125879537Y-70941094D01*
X125938502Y-70830780D01*
X125974812Y-70711082D01*
X125987072Y-70586600D01*
X125987072Y-69164200D01*
X125974812Y-69039718D01*
X125938502Y-68920020D01*
X125879537Y-68809706D01*
X125800185Y-68713015D01*
X125703494Y-68633663D01*
X125593180Y-68574698D01*
X125473482Y-68538388D01*
X125349000Y-68526128D01*
X123926600Y-68526128D01*
X123802118Y-68538388D01*
X123682420Y-68574698D01*
X123572106Y-68633663D01*
X123475415Y-68713015D01*
X123396063Y-68809706D01*
X123337098Y-68920020D01*
X123300788Y-69039718D01*
X123288528Y-69164200D01*
X123288528Y-70586600D01*
X123300788Y-70711082D01*
X123337098Y-70830780D01*
X123396063Y-70941094D01*
X123475415Y-71037785D01*
X123572106Y-71117137D01*
X123682420Y-71176102D01*
X123802118Y-71212412D01*
X123926600Y-71224672D01*
X123996754Y-71224672D01*
X123779647Y-71369738D01*
X123592138Y-71557247D01*
X123444813Y-71777735D01*
X123343333Y-72022728D01*
X123291600Y-72282811D01*
X123291600Y-72547989D01*
X123343333Y-72808072D01*
X123444813Y-73053065D01*
X123592138Y-73273553D01*
X123779647Y-73461062D01*
X124000135Y-73608387D01*
X124186060Y-73685400D01*
X124000135Y-73762413D01*
X123779647Y-73909738D01*
X123592138Y-74097247D01*
X123444813Y-74317735D01*
X123343333Y-74562728D01*
X123291600Y-74822811D01*
X123291600Y-75087989D01*
X123343333Y-75348072D01*
X123444813Y-75593065D01*
X123592138Y-75813553D01*
X123779647Y-76001062D01*
X124000135Y-76148387D01*
X124186060Y-76225400D01*
X124000135Y-76302413D01*
X123779647Y-76449738D01*
X123592138Y-76637247D01*
X123444813Y-76857735D01*
X123343333Y-77102728D01*
X123291600Y-77362811D01*
X123291600Y-77627989D01*
X123343333Y-77888072D01*
X123444813Y-78133065D01*
X123592138Y-78353553D01*
X123779647Y-78541062D01*
X124000135Y-78688387D01*
X124186060Y-78765400D01*
X124000135Y-78842413D01*
X123779647Y-78989738D01*
X123592138Y-79177247D01*
X123444813Y-79397735D01*
X123343333Y-79642728D01*
X123291600Y-79902811D01*
X123291600Y-80167989D01*
X123343333Y-80428072D01*
X123444813Y-80673065D01*
X123592138Y-80893553D01*
X123779647Y-81081062D01*
X124000135Y-81228387D01*
X124186060Y-81305400D01*
X124000135Y-81382413D01*
X123779647Y-81529738D01*
X123592138Y-81717247D01*
X123444813Y-81937735D01*
X123343333Y-82182728D01*
X123291600Y-82442811D01*
X123291600Y-82707989D01*
X123343333Y-82968072D01*
X123444813Y-83213065D01*
X123592138Y-83433553D01*
X123779647Y-83621062D01*
X124000135Y-83768387D01*
X124186060Y-83845400D01*
X124000135Y-83922413D01*
X123779647Y-84069738D01*
X123592138Y-84257247D01*
X123444813Y-84477735D01*
X123435749Y-84499617D01*
X123397170Y-84531278D01*
X123397167Y-84531281D01*
X123367131Y-84555931D01*
X123342481Y-84585968D01*
X123088000Y-84840449D01*
X123088000Y-66993272D01*
X123108306Y-67009937D01*
X123218620Y-67068902D01*
X123338318Y-67105212D01*
X123462800Y-67117472D01*
X123862800Y-67117472D01*
X123987282Y-67105212D01*
X123990246Y-67104313D01*
X124081050Y-67114400D01*
X124149018Y-67046432D01*
X124217294Y-67009937D01*
X124312800Y-66931558D01*
X124408306Y-67009937D01*
X124476582Y-67046432D01*
X124544550Y-67114400D01*
X124635354Y-67104313D01*
X124638318Y-67105212D01*
X124762800Y-67117472D01*
X125162800Y-67117472D01*
X125287282Y-67105212D01*
X125290246Y-67104313D01*
X125381050Y-67114400D01*
X125449018Y-67046432D01*
X125517294Y-67009937D01*
X125613985Y-66930585D01*
X125685800Y-66843078D01*
X125685800Y-66955650D01*
X125844550Y-67114400D01*
X125948711Y-67102829D01*
X126067725Y-67064335D01*
X126176942Y-67003363D01*
X126272165Y-66922254D01*
X126349735Y-66824127D01*
X126406671Y-66712753D01*
X126440784Y-66592411D01*
X126450765Y-66467725D01*
X126447800Y-66215150D01*
X126289050Y-66056400D01*
X125800872Y-66056400D01*
X125800872Y-65802400D01*
X126289050Y-65802400D01*
X126447800Y-65643650D01*
X126450765Y-65391075D01*
X126440784Y-65266389D01*
X126406671Y-65146047D01*
X126349735Y-65034673D01*
X126272165Y-64936546D01*
X126176942Y-64855437D01*
X126089914Y-64806852D01*
X126113928Y-64748879D01*
X126511428Y-65146379D01*
X126511428Y-65146379D01*
G37*
X126511428Y-65146379D02*
X126511428Y-66233200D01*
X126528492Y-66406454D01*
X126579028Y-66573050D01*
X126661095Y-66726586D01*
X126771538Y-66861162D01*
X126906114Y-66971605D01*
X127059650Y-67053672D01*
X127226246Y-67104208D01*
X127390270Y-67120363D01*
X128067293Y-67797387D01*
X128093536Y-67829364D01*
X128221168Y-67934109D01*
X128366783Y-68011942D01*
X128524784Y-68059871D01*
X128647930Y-68072000D01*
X128647936Y-68072000D01*
X128689099Y-68076054D01*
X128730262Y-68072000D01*
X129791095Y-68072000D01*
X129758314Y-68133328D01*
X129680600Y-68133328D01*
X129556118Y-68145588D01*
X129436420Y-68181898D01*
X129326106Y-68240863D01*
X129229415Y-68320215D01*
X129150063Y-68416906D01*
X129091098Y-68527220D01*
X129054788Y-68646918D01*
X129042528Y-68771400D01*
X129042528Y-69979169D01*
X129008258Y-70043284D01*
X128960329Y-70201285D01*
X128944146Y-70365600D01*
X128948201Y-70406772D01*
X128948200Y-71841615D01*
X128911918Y-71845188D01*
X128792220Y-71881498D01*
X128681906Y-71940463D01*
X128585215Y-72019815D01*
X128505863Y-72116506D01*
X128446898Y-72226820D01*
X128410588Y-72346518D01*
X128398328Y-72471000D01*
X128398328Y-73071000D01*
X128410588Y-73195482D01*
X128446898Y-73315180D01*
X128495443Y-73406000D01*
X128446898Y-73496820D01*
X128410588Y-73616518D01*
X128398328Y-73741000D01*
X128401400Y-73755250D01*
X128560150Y-73914000D01*
X129659400Y-73914000D01*
X129659400Y-73894000D01*
X129913400Y-73894000D01*
X129913400Y-73914000D01*
X131012650Y-73914000D01*
X131171400Y-73755250D01*
X131174472Y-73741000D01*
X131162212Y-73616518D01*
X131125902Y-73496820D01*
X131077357Y-73406000D01*
X131125902Y-73315180D01*
X131162212Y-73195482D01*
X131174472Y-73071000D01*
X131174472Y-72471000D01*
X131162212Y-72346518D01*
X131125902Y-72226820D01*
X131066937Y-72116506D01*
X130987585Y-72019815D01*
X130890894Y-71940463D01*
X130780580Y-71881498D01*
X130660882Y-71845188D01*
X130624600Y-71841615D01*
X130624600Y-71109472D01*
X131380600Y-71109472D01*
X131505082Y-71097212D01*
X131624780Y-71060902D01*
X131735094Y-71001937D01*
X131831785Y-70922585D01*
X131911137Y-70825894D01*
X131970102Y-70715580D01*
X131994566Y-70634934D01*
X132070331Y-70718988D01*
X132303680Y-70893041D01*
X132566501Y-71018225D01*
X132713710Y-71062876D01*
X132943600Y-70941555D01*
X132943600Y-69748400D01*
X133197600Y-69748400D01*
X133197600Y-70941555D01*
X133427490Y-71062876D01*
X133574699Y-71018225D01*
X133837520Y-70893041D01*
X134070869Y-70718988D01*
X134265778Y-70502755D01*
X134414757Y-70252652D01*
X134512081Y-69978291D01*
X134391414Y-69748400D01*
X133197600Y-69748400D01*
X132943600Y-69748400D01*
X132923600Y-69748400D01*
X132923600Y-69494400D01*
X132943600Y-69494400D01*
X132943600Y-69474400D01*
X133197600Y-69474400D01*
X133197600Y-69494400D01*
X134391414Y-69494400D01*
X134512081Y-69264509D01*
X134414757Y-68990148D01*
X134306614Y-68808600D01*
X134401037Y-68808600D01*
X134442200Y-68812654D01*
X134483363Y-68808600D01*
X134483370Y-68808600D01*
X134606516Y-68796471D01*
X134764517Y-68748542D01*
X134910132Y-68670709D01*
X135037764Y-68565964D01*
X135064011Y-68533982D01*
X136110689Y-67487305D01*
X136142664Y-67461064D01*
X136234968Y-67348592D01*
X136247409Y-67333432D01*
X136325242Y-67187817D01*
X136358219Y-67079105D01*
X136511950Y-67032472D01*
X136665486Y-66950405D01*
X136800062Y-66839962D01*
X136910505Y-66705386D01*
X136992572Y-66551850D01*
X137043108Y-66385254D01*
X137060172Y-66212000D01*
X137060172Y-65658226D01*
X137068030Y-65659000D01*
X137068037Y-65659000D01*
X137109200Y-65663054D01*
X137150363Y-65659000D01*
X138000684Y-65659000D01*
X138002498Y-65664980D01*
X138061463Y-65775294D01*
X138140815Y-65871985D01*
X138237506Y-65951337D01*
X138347820Y-66010302D01*
X138467518Y-66046612D01*
X138592000Y-66058872D01*
X139792000Y-66058872D01*
X139852400Y-66052923D01*
X139852400Y-67250923D01*
X139245910Y-67857414D01*
X139210047Y-67886846D01*
X139180617Y-67922707D01*
X139092604Y-68029949D01*
X139005338Y-68193214D01*
X138951599Y-68370367D01*
X138933454Y-68554600D01*
X138935056Y-68570865D01*
X138922420Y-68574698D01*
X138812106Y-68633663D01*
X138715415Y-68713015D01*
X138636063Y-68809706D01*
X138577098Y-68920020D01*
X138564890Y-68960263D01*
X138424214Y-69002937D01*
X138381373Y-69025836D01*
X138260948Y-69090204D01*
X138200794Y-69139572D01*
X138117846Y-69207646D01*
X138088413Y-69243510D01*
X137112310Y-70219614D01*
X137076447Y-70249046D01*
X137047017Y-70284907D01*
X136959004Y-70392149D01*
X136871738Y-70555414D01*
X136817999Y-70732567D01*
X136799854Y-70916800D01*
X136804401Y-70962967D01*
X136804400Y-71831200D01*
X135140233Y-71831200D01*
X135122688Y-71832928D01*
X134436400Y-71832928D01*
X134311918Y-71845188D01*
X134192220Y-71881498D01*
X134081906Y-71940463D01*
X133985215Y-72019815D01*
X133905863Y-72116506D01*
X133846898Y-72226820D01*
X133810588Y-72346518D01*
X133798328Y-72471000D01*
X133798328Y-73071000D01*
X133810588Y-73195482D01*
X133846898Y-73315180D01*
X133895443Y-73406000D01*
X133846898Y-73496820D01*
X133810588Y-73616518D01*
X133798328Y-73741000D01*
X133801400Y-73755250D01*
X133960150Y-73914000D01*
X135059400Y-73914000D01*
X135059400Y-73894000D01*
X135313400Y-73894000D01*
X135313400Y-73914000D01*
X136412650Y-73914000D01*
X136571400Y-73755250D01*
X136574472Y-73741000D01*
X136571498Y-73710800D01*
X136804401Y-73710800D01*
X136804400Y-80357324D01*
X136680510Y-80481214D01*
X136644647Y-80510646D01*
X136615217Y-80546507D01*
X136536758Y-80642108D01*
X136412650Y-80518000D01*
X135313400Y-80518000D01*
X135313400Y-80538000D01*
X135059400Y-80538000D01*
X135059400Y-80518000D01*
X133960150Y-80518000D01*
X133801400Y-80676750D01*
X133798328Y-80691000D01*
X133810588Y-80815482D01*
X133846898Y-80935180D01*
X133895443Y-81026000D01*
X133846898Y-81116820D01*
X133810588Y-81236518D01*
X133798328Y-81361000D01*
X133798328Y-81961000D01*
X133810588Y-82085482D01*
X133846898Y-82205180D01*
X133905863Y-82315494D01*
X133926349Y-82340457D01*
X133350000Y-82916806D01*
X133350000Y-80161437D01*
X133446337Y-80180600D01*
X133660063Y-80180600D01*
X133840799Y-80144649D01*
X133960150Y-80264000D01*
X135059400Y-80264000D01*
X135059400Y-80244000D01*
X135313400Y-80244000D01*
X135313400Y-80264000D01*
X136412650Y-80264000D01*
X136571400Y-80105250D01*
X136574472Y-80091000D01*
X136562212Y-79966518D01*
X136525902Y-79846820D01*
X136477357Y-79756000D01*
X136525902Y-79665180D01*
X136562212Y-79545482D01*
X136574472Y-79421000D01*
X136574472Y-78821000D01*
X136562212Y-78696518D01*
X136525902Y-78576820D01*
X136477357Y-78486000D01*
X136525902Y-78395180D01*
X136562212Y-78275482D01*
X136574472Y-78151000D01*
X136574472Y-77551000D01*
X136562212Y-77426518D01*
X136525902Y-77306820D01*
X136477357Y-77216000D01*
X136525902Y-77125180D01*
X136562212Y-77005482D01*
X136574472Y-76881000D01*
X136571400Y-76866750D01*
X136412650Y-76708000D01*
X135313400Y-76708000D01*
X135313400Y-76728000D01*
X135059400Y-76728000D01*
X135059400Y-76708000D01*
X133960150Y-76708000D01*
X133801400Y-76866750D01*
X133798328Y-76881000D01*
X133810588Y-77005482D01*
X133812808Y-77012800D01*
X133365763Y-77012800D01*
X133324600Y-77008746D01*
X133283437Y-77012800D01*
X133283430Y-77012800D01*
X133160284Y-77024929D01*
X133002283Y-77072858D01*
X132856668Y-77150691D01*
X132729036Y-77255436D01*
X132702793Y-77287413D01*
X132604475Y-77385731D01*
X132584315Y-77337060D01*
X132465575Y-77159353D01*
X132314447Y-77008225D01*
X132136740Y-76889485D01*
X131939283Y-76807696D01*
X131729663Y-76766000D01*
X131515937Y-76766000D01*
X131306317Y-76807696D01*
X131174472Y-76862308D01*
X131174472Y-76331255D01*
X131230117Y-76354304D01*
X131439737Y-76396000D01*
X131653463Y-76396000D01*
X131863083Y-76354304D01*
X132060540Y-76272515D01*
X132238247Y-76153775D01*
X132242822Y-76149200D01*
X133812808Y-76149200D01*
X133810588Y-76156518D01*
X133798328Y-76281000D01*
X133801400Y-76295250D01*
X133960150Y-76454000D01*
X135059400Y-76454000D01*
X135059400Y-76434000D01*
X135313400Y-76434000D01*
X135313400Y-76454000D01*
X136412650Y-76454000D01*
X136571400Y-76295250D01*
X136574472Y-76281000D01*
X136562212Y-76156518D01*
X136525902Y-76036820D01*
X136477357Y-75946000D01*
X136525902Y-75855180D01*
X136562212Y-75735482D01*
X136574472Y-75611000D01*
X136574472Y-75011000D01*
X136562212Y-74886518D01*
X136525902Y-74766820D01*
X136477357Y-74676000D01*
X136525902Y-74585180D01*
X136562212Y-74465482D01*
X136574472Y-74341000D01*
X136571400Y-74326750D01*
X136412650Y-74168000D01*
X135313400Y-74168000D01*
X135313400Y-74188000D01*
X135059400Y-74188000D01*
X135059400Y-74168000D01*
X133960150Y-74168000D01*
X133801400Y-74326750D01*
X133798328Y-74341000D01*
X133810588Y-74465482D01*
X133812808Y-74472800D01*
X132242822Y-74472800D01*
X132238247Y-74468225D01*
X132060540Y-74349485D01*
X131863083Y-74267696D01*
X131653463Y-74226000D01*
X131439737Y-74226000D01*
X131230117Y-74267696D01*
X131146840Y-74302190D01*
X131012650Y-74168000D01*
X129913400Y-74168000D01*
X129913400Y-75184000D01*
X129933400Y-75184000D01*
X129933400Y-75438000D01*
X129913400Y-75438000D01*
X129913400Y-75458000D01*
X129659400Y-75458000D01*
X129659400Y-75438000D01*
X128560150Y-75438000D01*
X128401400Y-75596750D01*
X128398328Y-75611000D01*
X128410588Y-75735482D01*
X128446898Y-75855180D01*
X128495443Y-75946000D01*
X128446898Y-76036820D01*
X128410588Y-76156518D01*
X128398328Y-76281000D01*
X128398328Y-76881000D01*
X128410588Y-77005482D01*
X128446898Y-77125180D01*
X128495443Y-77216000D01*
X128446898Y-77306820D01*
X128410588Y-77426518D01*
X128398328Y-77551000D01*
X128398328Y-78151000D01*
X128410588Y-78275482D01*
X128446898Y-78395180D01*
X128495443Y-78486000D01*
X128446898Y-78576820D01*
X128410588Y-78696518D01*
X128398328Y-78821000D01*
X128401400Y-78835250D01*
X128560150Y-78994000D01*
X129659400Y-78994000D01*
X129659400Y-78974000D01*
X129913400Y-78974000D01*
X129913400Y-78994000D01*
X131012650Y-78994000D01*
X131169159Y-78837491D01*
X131306317Y-78894304D01*
X131515937Y-78936000D01*
X131673600Y-78936000D01*
X131673600Y-79310006D01*
X131653463Y-79306000D01*
X131439737Y-79306000D01*
X131230117Y-79347696D01*
X131146840Y-79382190D01*
X131012650Y-79248000D01*
X129913400Y-79248000D01*
X129913400Y-79268000D01*
X129659400Y-79268000D01*
X129659400Y-79248000D01*
X128560150Y-79248000D01*
X128401400Y-79406750D01*
X128398328Y-79421000D01*
X128410588Y-79545482D01*
X128446898Y-79665180D01*
X128495443Y-79756000D01*
X128446898Y-79846820D01*
X128410588Y-79966518D01*
X128398328Y-80091000D01*
X128398328Y-80691000D01*
X128410588Y-80815482D01*
X128446898Y-80935180D01*
X128495443Y-81026000D01*
X128446898Y-81116820D01*
X128410588Y-81236518D01*
X128398328Y-81361000D01*
X128401400Y-81375250D01*
X128560150Y-81534000D01*
X129659400Y-81534000D01*
X129659400Y-81514000D01*
X129913400Y-81514000D01*
X129913400Y-81534000D01*
X131012650Y-81534000D01*
X131146840Y-81399810D01*
X131230117Y-81434304D01*
X131439737Y-81476000D01*
X131653463Y-81476000D01*
X131673601Y-81471994D01*
X131673601Y-83549005D01*
X130424218Y-84798389D01*
X130392236Y-84824636D01*
X130287491Y-84952269D01*
X130234312Y-85051761D01*
X127143551Y-81961000D01*
X128398328Y-81961000D01*
X128410588Y-82085482D01*
X128446898Y-82205180D01*
X128505863Y-82315494D01*
X128585215Y-82412185D01*
X128681906Y-82491537D01*
X128792220Y-82550502D01*
X128911918Y-82586812D01*
X129036400Y-82599072D01*
X129500650Y-82596000D01*
X129659400Y-82437250D01*
X129659400Y-81788000D01*
X129913400Y-81788000D01*
X129913400Y-82437250D01*
X130072150Y-82596000D01*
X130536400Y-82599072D01*
X130660882Y-82586812D01*
X130780580Y-82550502D01*
X130890894Y-82491537D01*
X130987585Y-82412185D01*
X131066937Y-82315494D01*
X131125902Y-82205180D01*
X131162212Y-82085482D01*
X131174472Y-81961000D01*
X131171400Y-81946750D01*
X131012650Y-81788000D01*
X129913400Y-81788000D01*
X129659400Y-81788000D01*
X128560150Y-81788000D01*
X128401400Y-81946750D01*
X128398328Y-81961000D01*
X127143551Y-81961000D01*
X125838059Y-80655509D01*
X125932267Y-80428072D01*
X125984000Y-80167989D01*
X125984000Y-79902811D01*
X125932267Y-79642728D01*
X125830787Y-79397735D01*
X125683462Y-79177247D01*
X125495953Y-78989738D01*
X125275465Y-78842413D01*
X125089540Y-78765400D01*
X125275465Y-78688387D01*
X125495953Y-78541062D01*
X125683462Y-78353553D01*
X125830787Y-78133065D01*
X125932267Y-77888072D01*
X125984000Y-77627989D01*
X125984000Y-77362811D01*
X125932267Y-77102728D01*
X125830787Y-76857735D01*
X125683462Y-76637247D01*
X125495953Y-76449738D01*
X125275465Y-76302413D01*
X125089540Y-76225400D01*
X125275465Y-76148387D01*
X125495953Y-76001062D01*
X125683462Y-75813553D01*
X125830787Y-75593065D01*
X125932267Y-75348072D01*
X125984000Y-75087989D01*
X125984000Y-74822811D01*
X125932267Y-74562728D01*
X125840424Y-74341000D01*
X128398328Y-74341000D01*
X128410588Y-74465482D01*
X128446898Y-74585180D01*
X128495443Y-74676000D01*
X128446898Y-74766820D01*
X128410588Y-74886518D01*
X128398328Y-75011000D01*
X128401400Y-75025250D01*
X128560150Y-75184000D01*
X129659400Y-75184000D01*
X129659400Y-74168000D01*
X128560150Y-74168000D01*
X128401400Y-74326750D01*
X128398328Y-74341000D01*
X125840424Y-74341000D01*
X125830787Y-74317735D01*
X125683462Y-74097247D01*
X125495953Y-73909738D01*
X125275465Y-73762413D01*
X125089540Y-73685400D01*
X125275465Y-73608387D01*
X125495953Y-73461062D01*
X125683462Y-73273553D01*
X125830787Y-73053065D01*
X125932267Y-72808072D01*
X125984000Y-72547989D01*
X125984000Y-72282811D01*
X125932267Y-72022728D01*
X125830787Y-71777735D01*
X125683462Y-71557247D01*
X125495953Y-71369738D01*
X125278846Y-71224672D01*
X125349000Y-71224672D01*
X125473482Y-71212412D01*
X125593180Y-71176102D01*
X125703494Y-71117137D01*
X125800185Y-71037785D01*
X125879537Y-70941094D01*
X125938502Y-70830780D01*
X125974812Y-70711082D01*
X125987072Y-70586600D01*
X125987072Y-69164200D01*
X125974812Y-69039718D01*
X125938502Y-68920020D01*
X125879537Y-68809706D01*
X125800185Y-68713015D01*
X125703494Y-68633663D01*
X125593180Y-68574698D01*
X125473482Y-68538388D01*
X125349000Y-68526128D01*
X123926600Y-68526128D01*
X123802118Y-68538388D01*
X123682420Y-68574698D01*
X123572106Y-68633663D01*
X123475415Y-68713015D01*
X123396063Y-68809706D01*
X123337098Y-68920020D01*
X123300788Y-69039718D01*
X123288528Y-69164200D01*
X123288528Y-70586600D01*
X123300788Y-70711082D01*
X123337098Y-70830780D01*
X123396063Y-70941094D01*
X123475415Y-71037785D01*
X123572106Y-71117137D01*
X123682420Y-71176102D01*
X123802118Y-71212412D01*
X123926600Y-71224672D01*
X123996754Y-71224672D01*
X123779647Y-71369738D01*
X123592138Y-71557247D01*
X123444813Y-71777735D01*
X123343333Y-72022728D01*
X123291600Y-72282811D01*
X123291600Y-72547989D01*
X123343333Y-72808072D01*
X123444813Y-73053065D01*
X123592138Y-73273553D01*
X123779647Y-73461062D01*
X124000135Y-73608387D01*
X124186060Y-73685400D01*
X124000135Y-73762413D01*
X123779647Y-73909738D01*
X123592138Y-74097247D01*
X123444813Y-74317735D01*
X123343333Y-74562728D01*
X123291600Y-74822811D01*
X123291600Y-75087989D01*
X123343333Y-75348072D01*
X123444813Y-75593065D01*
X123592138Y-75813553D01*
X123779647Y-76001062D01*
X124000135Y-76148387D01*
X124186060Y-76225400D01*
X124000135Y-76302413D01*
X123779647Y-76449738D01*
X123592138Y-76637247D01*
X123444813Y-76857735D01*
X123343333Y-77102728D01*
X123291600Y-77362811D01*
X123291600Y-77627989D01*
X123343333Y-77888072D01*
X123444813Y-78133065D01*
X123592138Y-78353553D01*
X123779647Y-78541062D01*
X124000135Y-78688387D01*
X124186060Y-78765400D01*
X124000135Y-78842413D01*
X123779647Y-78989738D01*
X123592138Y-79177247D01*
X123444813Y-79397735D01*
X123343333Y-79642728D01*
X123291600Y-79902811D01*
X123291600Y-80167989D01*
X123343333Y-80428072D01*
X123444813Y-80673065D01*
X123592138Y-80893553D01*
X123779647Y-81081062D01*
X124000135Y-81228387D01*
X124186060Y-81305400D01*
X124000135Y-81382413D01*
X123779647Y-81529738D01*
X123592138Y-81717247D01*
X123444813Y-81937735D01*
X123343333Y-82182728D01*
X123291600Y-82442811D01*
X123291600Y-82707989D01*
X123343333Y-82968072D01*
X123444813Y-83213065D01*
X123592138Y-83433553D01*
X123779647Y-83621062D01*
X124000135Y-83768387D01*
X124186060Y-83845400D01*
X124000135Y-83922413D01*
X123779647Y-84069738D01*
X123592138Y-84257247D01*
X123444813Y-84477735D01*
X123435749Y-84499617D01*
X123397170Y-84531278D01*
X123397167Y-84531281D01*
X123367131Y-84555931D01*
X123342481Y-84585968D01*
X123088000Y-84840449D01*
X123088000Y-66993272D01*
X123108306Y-67009937D01*
X123218620Y-67068902D01*
X123338318Y-67105212D01*
X123462800Y-67117472D01*
X123862800Y-67117472D01*
X123987282Y-67105212D01*
X123990246Y-67104313D01*
X124081050Y-67114400D01*
X124149018Y-67046432D01*
X124217294Y-67009937D01*
X124312800Y-66931558D01*
X124408306Y-67009937D01*
X124476582Y-67046432D01*
X124544550Y-67114400D01*
X124635354Y-67104313D01*
X124638318Y-67105212D01*
X124762800Y-67117472D01*
X125162800Y-67117472D01*
X125287282Y-67105212D01*
X125290246Y-67104313D01*
X125381050Y-67114400D01*
X125449018Y-67046432D01*
X125517294Y-67009937D01*
X125613985Y-66930585D01*
X125685800Y-66843078D01*
X125685800Y-66955650D01*
X125844550Y-67114400D01*
X125948711Y-67102829D01*
X126067725Y-67064335D01*
X126176942Y-67003363D01*
X126272165Y-66922254D01*
X126349735Y-66824127D01*
X126406671Y-66712753D01*
X126440784Y-66592411D01*
X126450765Y-66467725D01*
X126447800Y-66215150D01*
X126289050Y-66056400D01*
X125800872Y-66056400D01*
X125800872Y-65802400D01*
X126289050Y-65802400D01*
X126447800Y-65643650D01*
X126450765Y-65391075D01*
X126440784Y-65266389D01*
X126406671Y-65146047D01*
X126349735Y-65034673D01*
X126272165Y-64936546D01*
X126176942Y-64855437D01*
X126089914Y-64806852D01*
X126113928Y-64748879D01*
X126511428Y-65146379D01*
G36*
X139620681Y-62158958D02*
G01*
X139593484Y-62146563D01*
X139356687Y-62090800D01*
X139113562Y-62082305D01*
X138873451Y-62121405D01*
X138645582Y-62206598D01*
X138569148Y-62247452D01*
X138521841Y-62471036D01*
X139192000Y-63141195D01*
X139206143Y-63127053D01*
X139385748Y-63306658D01*
X139371605Y-63320800D01*
X139385748Y-63334943D01*
X139206143Y-63514548D01*
X139192000Y-63500405D01*
X139177858Y-63514548D01*
X138998253Y-63334943D01*
X139012395Y-63320800D01*
X138342236Y-62650641D01*
X138118652Y-62697948D01*
X138017763Y-62919316D01*
X137962000Y-63156113D01*
X137953505Y-63399238D01*
X137992605Y-63639349D01*
X138072451Y-63852917D01*
X138061463Y-63866306D01*
X138002498Y-63976620D01*
X138000684Y-63982600D01*
X137456394Y-63982600D01*
X137096011Y-63622217D01*
X137069764Y-63590236D01*
X137004707Y-63536845D01*
X137043108Y-63410254D01*
X137060172Y-63237000D01*
X137060172Y-62312000D01*
X137043108Y-62138746D01*
X136992572Y-61972150D01*
X136910505Y-61818614D01*
X136893752Y-61798200D01*
X139259923Y-61798200D01*
X139620681Y-62158958D01*
X139620681Y-62158958D01*
G37*
X139620681Y-62158958D02*
X139593484Y-62146563D01*
X139356687Y-62090800D01*
X139113562Y-62082305D01*
X138873451Y-62121405D01*
X138645582Y-62206598D01*
X138569148Y-62247452D01*
X138521841Y-62471036D01*
X139192000Y-63141195D01*
X139206143Y-63127053D01*
X139385748Y-63306658D01*
X139371605Y-63320800D01*
X139385748Y-63334943D01*
X139206143Y-63514548D01*
X139192000Y-63500405D01*
X139177858Y-63514548D01*
X138998253Y-63334943D01*
X139012395Y-63320800D01*
X138342236Y-62650641D01*
X138118652Y-62697948D01*
X138017763Y-62919316D01*
X137962000Y-63156113D01*
X137953505Y-63399238D01*
X137992605Y-63639349D01*
X138072451Y-63852917D01*
X138061463Y-63866306D01*
X138002498Y-63976620D01*
X138000684Y-63982600D01*
X137456394Y-63982600D01*
X137096011Y-63622217D01*
X137069764Y-63590236D01*
X137004707Y-63536845D01*
X137043108Y-63410254D01*
X137060172Y-63237000D01*
X137060172Y-62312000D01*
X137043108Y-62138746D01*
X136992572Y-61972150D01*
X136910505Y-61818614D01*
X136893752Y-61798200D01*
X139259923Y-61798200D01*
X139620681Y-62158958D01*
G36*
X141326000Y-61206122D02*
G01*
X140346391Y-60226515D01*
X140316954Y-60190646D01*
X140173851Y-60073204D01*
X140010586Y-59985937D01*
X139833433Y-59932198D01*
X139695367Y-59918600D01*
X139695357Y-59918600D01*
X139649200Y-59914054D01*
X139603043Y-59918600D01*
X136469556Y-59918600D01*
X136423399Y-59914054D01*
X136377242Y-59918600D01*
X136377233Y-59918600D01*
X136239167Y-59932198D01*
X136062014Y-59985937D01*
X135898749Y-60073204D01*
X135898747Y-60073205D01*
X135898748Y-60073205D01*
X135812537Y-60143957D01*
X135755646Y-60190646D01*
X135726217Y-60226505D01*
X134915214Y-61037509D01*
X134879346Y-61066946D01*
X134761904Y-61210049D01*
X134674637Y-61373315D01*
X134644506Y-61472643D01*
X134582250Y-61491528D01*
X134428714Y-61573595D01*
X134327900Y-61656330D01*
X134227086Y-61573595D01*
X134073550Y-61491528D01*
X133906954Y-61440992D01*
X133733700Y-61423928D01*
X132483700Y-61423928D01*
X132310446Y-61440992D01*
X132185515Y-61478889D01*
X132187572Y-61458000D01*
X132187572Y-60208000D01*
X132170508Y-60034746D01*
X132119972Y-59868150D01*
X132037905Y-59714614D01*
X131927462Y-59580038D01*
X131792886Y-59469595D01*
X131639350Y-59387528D01*
X131624400Y-59382993D01*
X131624400Y-59038511D01*
X131814289Y-59096113D01*
X132032450Y-59117600D01*
X132178350Y-59117600D01*
X132396511Y-59096113D01*
X132676434Y-59011199D01*
X132934414Y-58873306D01*
X133160534Y-58687734D01*
X133346106Y-58461614D01*
X133375400Y-58406809D01*
X133404694Y-58461614D01*
X133590266Y-58687734D01*
X133816386Y-58873306D01*
X134074366Y-59011199D01*
X134354289Y-59096113D01*
X134572450Y-59117600D01*
X134718350Y-59117600D01*
X134936511Y-59096113D01*
X135216434Y-59011199D01*
X135474414Y-58873306D01*
X135700534Y-58687734D01*
X135725007Y-58657913D01*
X135745898Y-58726780D01*
X135804863Y-58837094D01*
X135884215Y-58933785D01*
X135980906Y-59013137D01*
X136091220Y-59072102D01*
X136210918Y-59108412D01*
X136335400Y-59120672D01*
X138035400Y-59120672D01*
X138159882Y-59108412D01*
X138279580Y-59072102D01*
X138389894Y-59013137D01*
X138486585Y-58933785D01*
X138565937Y-58837094D01*
X138624902Y-58726780D01*
X138661212Y-58607082D01*
X138673472Y-58482600D01*
X138673472Y-56782600D01*
X138661212Y-56658118D01*
X138624902Y-56538420D01*
X138565937Y-56428106D01*
X138486585Y-56331415D01*
X138389894Y-56252063D01*
X138279580Y-56193098D01*
X138159882Y-56156788D01*
X138035400Y-56144528D01*
X136335400Y-56144528D01*
X136210918Y-56156788D01*
X136091220Y-56193098D01*
X135980906Y-56252063D01*
X135884215Y-56331415D01*
X135804863Y-56428106D01*
X135745898Y-56538420D01*
X135725007Y-56607287D01*
X135700534Y-56577466D01*
X135474414Y-56391894D01*
X135216434Y-56254001D01*
X134936511Y-56169087D01*
X134718350Y-56147600D01*
X134572450Y-56147600D01*
X134354289Y-56169087D01*
X134074366Y-56254001D01*
X133816386Y-56391894D01*
X133590266Y-56577466D01*
X133404694Y-56803586D01*
X133375400Y-56858391D01*
X133346106Y-56803586D01*
X133160534Y-56577466D01*
X132934414Y-56391894D01*
X132676434Y-56254001D01*
X132497175Y-56199623D01*
X131216327Y-54918777D01*
X131191669Y-54888731D01*
X131071772Y-54790334D01*
X130934983Y-54717218D01*
X130786557Y-54672194D01*
X130670873Y-54660800D01*
X130670863Y-54660800D01*
X130632200Y-54656992D01*
X130593537Y-54660800D01*
X124320862Y-54660800D01*
X124282199Y-54656992D01*
X124243536Y-54660800D01*
X124243527Y-54660800D01*
X124127843Y-54672194D01*
X123979417Y-54717218D01*
X123842628Y-54790334D01*
X123842626Y-54790335D01*
X123842627Y-54790335D01*
X123752769Y-54864079D01*
X123752767Y-54864081D01*
X123722731Y-54888731D01*
X123698081Y-54918767D01*
X123088000Y-55528849D01*
X123088000Y-53492000D01*
X141326000Y-53492000D01*
X141326000Y-61206122D01*
X141326000Y-61206122D01*
G37*
X141326000Y-61206122D02*
X140346391Y-60226515D01*
X140316954Y-60190646D01*
X140173851Y-60073204D01*
X140010586Y-59985937D01*
X139833433Y-59932198D01*
X139695367Y-59918600D01*
X139695357Y-59918600D01*
X139649200Y-59914054D01*
X139603043Y-59918600D01*
X136469556Y-59918600D01*
X136423399Y-59914054D01*
X136377242Y-59918600D01*
X136377233Y-59918600D01*
X136239167Y-59932198D01*
X136062014Y-59985937D01*
X135898749Y-60073204D01*
X135898747Y-60073205D01*
X135898748Y-60073205D01*
X135812537Y-60143957D01*
X135755646Y-60190646D01*
X135726217Y-60226505D01*
X134915214Y-61037509D01*
X134879346Y-61066946D01*
X134761904Y-61210049D01*
X134674637Y-61373315D01*
X134644506Y-61472643D01*
X134582250Y-61491528D01*
X134428714Y-61573595D01*
X134327900Y-61656330D01*
X134227086Y-61573595D01*
X134073550Y-61491528D01*
X133906954Y-61440992D01*
X133733700Y-61423928D01*
X132483700Y-61423928D01*
X132310446Y-61440992D01*
X132185515Y-61478889D01*
X132187572Y-61458000D01*
X132187572Y-60208000D01*
X132170508Y-60034746D01*
X132119972Y-59868150D01*
X132037905Y-59714614D01*
X131927462Y-59580038D01*
X131792886Y-59469595D01*
X131639350Y-59387528D01*
X131624400Y-59382993D01*
X131624400Y-59038511D01*
X131814289Y-59096113D01*
X132032450Y-59117600D01*
X132178350Y-59117600D01*
X132396511Y-59096113D01*
X132676434Y-59011199D01*
X132934414Y-58873306D01*
X133160534Y-58687734D01*
X133346106Y-58461614D01*
X133375400Y-58406809D01*
X133404694Y-58461614D01*
X133590266Y-58687734D01*
X133816386Y-58873306D01*
X134074366Y-59011199D01*
X134354289Y-59096113D01*
X134572450Y-59117600D01*
X134718350Y-59117600D01*
X134936511Y-59096113D01*
X135216434Y-59011199D01*
X135474414Y-58873306D01*
X135700534Y-58687734D01*
X135725007Y-58657913D01*
X135745898Y-58726780D01*
X135804863Y-58837094D01*
X135884215Y-58933785D01*
X135980906Y-59013137D01*
X136091220Y-59072102D01*
X136210918Y-59108412D01*
X136335400Y-59120672D01*
X138035400Y-59120672D01*
X138159882Y-59108412D01*
X138279580Y-59072102D01*
X138389894Y-59013137D01*
X138486585Y-58933785D01*
X138565937Y-58837094D01*
X138624902Y-58726780D01*
X138661212Y-58607082D01*
X138673472Y-58482600D01*
X138673472Y-56782600D01*
X138661212Y-56658118D01*
X138624902Y-56538420D01*
X138565937Y-56428106D01*
X138486585Y-56331415D01*
X138389894Y-56252063D01*
X138279580Y-56193098D01*
X138159882Y-56156788D01*
X138035400Y-56144528D01*
X136335400Y-56144528D01*
X136210918Y-56156788D01*
X136091220Y-56193098D01*
X135980906Y-56252063D01*
X135884215Y-56331415D01*
X135804863Y-56428106D01*
X135745898Y-56538420D01*
X135725007Y-56607287D01*
X135700534Y-56577466D01*
X135474414Y-56391894D01*
X135216434Y-56254001D01*
X134936511Y-56169087D01*
X134718350Y-56147600D01*
X134572450Y-56147600D01*
X134354289Y-56169087D01*
X134074366Y-56254001D01*
X133816386Y-56391894D01*
X133590266Y-56577466D01*
X133404694Y-56803586D01*
X133375400Y-56858391D01*
X133346106Y-56803586D01*
X133160534Y-56577466D01*
X132934414Y-56391894D01*
X132676434Y-56254001D01*
X132497175Y-56199623D01*
X131216327Y-54918777D01*
X131191669Y-54888731D01*
X131071772Y-54790334D01*
X130934983Y-54717218D01*
X130786557Y-54672194D01*
X130670873Y-54660800D01*
X130670863Y-54660800D01*
X130632200Y-54656992D01*
X130593537Y-54660800D01*
X124320862Y-54660800D01*
X124282199Y-54656992D01*
X124243536Y-54660800D01*
X124243527Y-54660800D01*
X124127843Y-54672194D01*
X123979417Y-54717218D01*
X123842628Y-54790334D01*
X123842626Y-54790335D01*
X123842627Y-54790335D01*
X123752769Y-54864079D01*
X123752767Y-54864081D01*
X123722731Y-54888731D01*
X123698081Y-54918767D01*
X123088000Y-55528849D01*
X123088000Y-53492000D01*
X141326000Y-53492000D01*
X141326000Y-61206122D01*
G36*
X124612400Y-57505600D02*
G01*
X124632400Y-57505600D01*
X124632400Y-57759600D01*
X124612400Y-57759600D01*
X124612400Y-57779600D01*
X124358400Y-57779600D01*
X124358400Y-57759600D01*
X124338400Y-57759600D01*
X124338400Y-57505600D01*
X124358400Y-57505600D01*
X124358400Y-57485600D01*
X124612400Y-57485600D01*
X124612400Y-57505600D01*
X124612400Y-57505600D01*
G37*
X124612400Y-57505600D02*
X124632400Y-57505600D01*
X124632400Y-57759600D01*
X124612400Y-57759600D01*
X124612400Y-57779600D01*
X124358400Y-57779600D01*
X124358400Y-57759600D01*
X124338400Y-57759600D01*
X124338400Y-57505600D01*
X124358400Y-57505600D01*
X124358400Y-57485600D01*
X124612400Y-57485600D01*
X124612400Y-57505600D01*
M02*
